<?xml version="1.0" standalone="no"?>
<!DOCTYPE svg PUBLIC "-//W3C//DTD SVG 20010904//EN"
 "http://www.w3.org/TR/2001/REC-SVG-20010904/DTD/svg10.dtd">
<svg version="1.0" xmlns="http://www.w3.org/2000/svg"
 width="1388.000000pt" height="1396.000000pt" viewBox="0 0 1388.000000 1396.000000"
 preserveAspectRatio="xMidYMid meet">

<g transform="translate(0.000000,1396.000000) scale(0.100000,-0.100000)"
fill="#000000" stroke="none">
<path d="M5395 13834 c-919 -99 -1104 -116 -1310 -122 l-240 -7 -2 -590 c-12
-2873 -41 -12731 -37 -12737 3 -4 65 -8 138 -8 120 0 243 -16 1310 -175 647
-96 1225 -177 1284 -181 378 -22 899 130 1249 363 350 234 605 518 783 874
132 263 215 580 221 849 1 52 -15 2228 -36 4835 -27 3363 -41 4742 -49 4747
-7 5 -5 8 6 8 14 0 16 11 11 98 -30 579 -250 1090 -648 1501 -394 408 -917
641 -1465 655 -131 4 -246 -7 -1215 -110z m1385 -519 c615 -102 1129 -586
1284 -1212 42 -168 48 -236 47 -488 -2 -341 67 -9193 73 -9349 10 -273 -36
-490 -160 -741 -218 -447 -660 -776 -1174 -873 -229 -44 -170 -50 -1353 126
-587 88 -1071 163 -1076 168 -9 12 29 12156 38 12167 5 5 1681 185 2051 220
61 6 168 -1 270 -18z"/>
<path d="M10140 12563 c-105 -145 -141 -184 -430 -467 -579 -568 -584 -574
-609 -641 l-23 -60 17 -3875 c9 -2131 20 -4165 23 -4520 l7 -645 27 -55 c21
-41 93 -122 289 -325 206 -214 304 -325 471 -535 116 -146 216 -265 222 -264
6 1 100 71 209 157 108 86 218 168 244 183 890 501 1602 1147 2159 1959 634
923 996 1932 1106 3080 20 214 17 895 -5 1100 -56 518 -144 935 -292 1380
-195 590 -486 1162 -838 1645 -494 678 -1091 1219 -1807 1637 -85 50 -196 111
-246 137 -50 26 -158 96 -240 156 -82 61 -153 110 -159 110 -6 0 -62 -71 -125
-157z m520 -816 c217 -130 473 -312 675 -480 145 -122 519 -494 634 -632 753
-905 1192 -2002 1272 -3181 15 -214 6 -749 -15 -939 -80 -729 -262 -1351 -582
-1995 -292 -586 -647 -1075 -1108 -1528 -386 -379 -776 -673 -1217 -917 l-77
-42 -143 146 c-79 80 -195 198 -257 262 l-113 116 -19 3954 c-11 2175 -20
4123 -20 4330 l0 376 349 341 349 341 94 -50 c51 -28 131 -74 178 -102z"/>
<path d="M1958 12418 c-90 -106 -171 -206 -181 -221 -17 -26 -344 -430 -997
-1231 -452 -554 -642 -790 -648 -806 -3 -8 -25 -41 -49 -72 -41 -54 -54 -88
-33 -88 7 0 11 -1082 12 -3212 3 -3025 4 -3213 20 -3212 10 1 16 -2 15 -6 -3
-10 -35 26 928 -1045 440 -490 829 -923 865 -964 176 -200 422 -471 428 -471
4 0 47 36 96 80 48 44 92 78 96 75 10 -6 858 761 894 808 35 46 55 107 61 186
3 36 15 2099 27 4584 20 4225 21 4521 5 4570 -9 29 -33 72 -53 95 -20 23 -223
203 -452 400 -690 593 -844 722 -861 722 -5 0 -83 -87 -173 -192z m606 -972
l339 -290 -6 -731 c-4 -401 -14 -2271 -22 -4155 -9 -1884 -18 -3533 -22 -3665
l-5 -240 -234 -210 c-128 -115 -235 -210 -238 -210 -4 0 -805 890 -1623 1803
l-83 92 0 3008 0 3009 767 945 c423 520 773 943 778 940 6 -3 163 -136 349
-296z"/>
</g>
</svg>
