<?xml version="1.0" standalone="no"?>
<!DOCTYPE svg PUBLIC "-//W3C//DTD SVG 20010904//EN"
 "http://www.w3.org/TR/2001/REC-SVG-20010904/DTD/svg10.dtd">
<svg version="1.0" xmlns="http://www.w3.org/2000/svg"
 width="768.000000pt" height="512.000000pt" viewBox="0 0 768.000000 512.000000"
 preserveAspectRatio="xMidYMid meet">

<g transform="translate(0.000000,512.000000) scale(0.100000,-0.100000)"
fill="#000000" stroke="none">
<path d="M50 5083 c5 -20 12 -78 16 -128 4 -49 11 -101 16 -114 4 -13 13 -62
18 -110 5 -47 20 -156 34 -241 13 -85 27 -180 31 -210 3 -30 10 -77 16 -105 9
-51 77 -587 77 -615 0 -14 36 -268 48 -338 3 -22 2 -32 -5 -28 -6 4 -18 2 -28
-3 -10 -6 -45 -15 -78 -21 -33 -6 -90 -16 -128 -22 l-67 -12 0 -78 c0 -71 9
-94 25 -68 3 6 15 10 26 10 11 0 22 6 25 13 3 8 21 14 42 15 23 1 76 21 141
54 83 42 105 50 109 38 3 -8 25 -35 50 -60 34 -35 51 -64 74 -130 35 -99 62
-155 93 -192 45 -53 64 -111 79 -238 9 -69 16 -166 17 -217 1 -78 -2 -98 -20
-128 -11 -20 -21 -45 -21 -56 0 -10 -13 -27 -28 -37 -15 -9 -46 -37 -67 -62
-79 -91 -139 -149 -167 -161 -32 -13 -226 -201 -245 -236 -10 -20 -9 -23 9
-23 15 0 19 -5 15 -20 -3 -11 -4 -20 -3 -20 14 0 65 34 70 46 3 8 10 13 14 10
5 -3 14 11 21 30 8 23 19 34 32 34 10 0 19 -5 19 -11 0 -5 5 -7 11 -3 6 3 7 9
3 13 -5 3 -10 14 -11 25 -1 16 4 17 35 12 20 -3 40 -13 45 -21 7 -13 12 -14
23 -4 19 16 18 29 -3 30 -15 0 -15 2 2 9 11 5 15 9 10 9 -6 1 -16 10 -23 21
-11 18 -10 22 10 29 24 9 51 4 43 -8 -2 -4 15 -7 38 -6 25 1 56 -6 76 -17 18
-10 36 -16 39 -13 8 8 -30 34 -51 35 -14 0 -16 5 -11 26 5 18 3 25 -4 20 -6
-3 -13 -2 -16 3 -4 6 9 8 30 5 20 -2 33 0 30 5 -4 5 -1 11 6 13 7 3 3 7 -9 10
-17 4 -20 2 -16 -10 5 -11 3 -13 -8 -6 -17 11 -20 11 -65 13 -24 1 -33 5 -28
13 5 8 2 9 -11 4 -18 -7 -18 -6 0 14 18 20 18 20 32 0 15 -21 53 -28 53 -10 0
6 -10 15 -22 20 -23 9 -23 9 -2 9 12 1 24 -6 28 -14 3 -10 19 -15 42 -15 24 0
34 4 31 13 -2 6 -10 11 -16 9 -6 -1 -11 8 -12 20 0 14 -2 17 -6 8 -14 -44 -16
-45 -23 -20 -11 36 -12 82 -1 76 5 -3 12 1 15 9 4 13 10 14 26 5 22 -12 27 -1
8 18 -10 10 -10 15 1 21 7 5 11 14 7 19 -4 7 1 10 13 7 14 -3 18 1 14 16 -3
10 0 19 6 19 6 0 11 5 11 12 0 16 196 213 250 250 73 51 126 122 160 215 16
46 30 92 30 102 0 10 -12 34 -28 54 -91 118 -107 137 -110 127 -2 -6 -14 2
-26 18 -11 16 -40 54 -63 83 -74 97 -153 274 -153 345 0 57 29 153 67 226 l35
67 -16 48 c-23 71 -46 188 -46 237 0 77 32 142 73 148 19 3 20 10 22 188 1
161 4 192 22 243 19 51 72 132 73 110 0 -4 7 0 15 11 8 10 20 16 28 13 11 -4
14 1 11 16 -2 12 -2 16 2 10 9 -21 24 -15 25 10 0 12 3 17 5 11 3 -7 22 5 46
27 23 21 45 36 50 33 5 -3 12 3 15 15 5 21 23 30 23 11 0 -5 5 -10 12 -10 6 0
9 3 5 6 -10 11 22 36 38 30 10 -3 15 1 15 12 0 15 2 15 10 2 5 -8 10 -10 10
-4 0 7 12 19 26 29 15 9 24 13 21 8 -3 -5 -2 -15 4 -23 7 -13 9 -13 9 0 0 9 9
23 19 32 17 15 20 15 35 0 15 -15 16 -15 16 2 0 15 3 16 14 7 19 -16 32 5 16
24 -8 9 -8 15 -2 15 6 0 13 -6 15 -12 4 -10 7 -10 14 -1 9 13 36 2 33 -13 -3
-19 19 -14 25 5 8 26 21 27 34 4 9 -15 10 -13 11 11 0 27 1 28 13 12 7 -9 17
-17 22 -16 27 6 45 -2 45 -18 0 -14 7 -18 31 -16 23 2 32 -3 38 -19 5 -14 10
-17 15 -9 10 16 39 15 31 0 -4 -7 1 -4 10 7 16 19 16 19 9 -10 -6 -29 -6 -29
9 -10 9 11 17 16 17 11 0 -5 8 -2 17 5 15 12 16 12 10 -3 -6 -17 7 -24 36 -19
4 0 7 -4 7 -10 0 -7 12 -10 30 -7 17 3 30 1 30 -4 0 -4 -4 -8 -10 -8 -5 0 -10
-16 -10 -36 0 -21 4 -33 10 -29 5 3 10 15 10 26 0 11 4 18 8 15 5 -3 6 -26 2
-51 -6 -37 -4 -43 7 -34 7 6 13 19 14 28 0 10 4 7 11 -9 17 -40 18 -52 2 -46
-8 3 -14 1 -14 -5 0 -5 -11 -20 -25 -33 -14 -13 -25 -26 -25 -29 0 -3 20 -34
44 -69 55 -80 103 -174 115 -230 16 -72 41 -249 40 -287 0 -32 -2 -34 -11 -15
-5 12 -24 28 -41 37 -18 9 -42 24 -54 33 -22 16 -23 16 -23 -9 0 -14 -5 -29
-10 -32 -6 -3 -10 -15 -10 -26 0 -10 -6 -19 -14 -19 -17 0 -56 -72 -56 -102 0
-39 49 -184 67 -200 44 -38 103 -25 103 22 0 10 5 22 11 26 7 4 9 0 5 -13 -4
-11 1 -62 9 -113 20 -113 15 -134 -21 -94 -14 16 -38 42 -52 58 l-27 29 -6
-32 c-8 -41 -15 -47 -33 -32 -9 8 -63 13 -146 15 -72 2 -133 6 -137 9 -11 12
23 82 45 92 28 12 25 39 -5 43 -20 3 -81 -22 -93 -38 -10 -13 -116 -78 -140
-85 -13 -4 -37 -22 -53 -38 -23 -25 -30 -28 -38 -16 -7 11 -9 9 -9 -8 0 -19
-6 -23 -31 -23 -27 0 -30 -3 -27 -27 2 -22 -1 -29 -19 -31 -13 -2 -24 -13 -28
-29 -4 -19 -9 -23 -18 -14 -18 18 -23 14 -51 -34 -25 -41 -36 -94 -39 -172 -1
-37 -19 -42 -51 -18 -11 8 -27 15 -36 15 -21 0 -71 47 -104 97 -14 22 -33 71
-41 110 -8 39 -18 79 -22 88 -5 15 -2 17 19 12 25 -7 26 -5 30 44 1 28 0 53
-4 56 -5 2 -9 -8 -9 -24 -2 -54 -4 -58 -24 -61 -16 -2 -25 7 -41 43 l-20 46
-14 -26 c-12 -22 -12 -28 -1 -34 8 -5 9 -10 3 -12 -6 -3 -2 -22 10 -49 11 -25
25 -56 31 -70 40 -89 173 -267 267 -358 54 -52 56 -53 104 -48 27 3 54 10 60
16 5 5 18 10 29 10 25 0 49 24 36 37 -5 5 -7 18 -3 27 5 14 9 15 15 4 6 -9 9
-4 9 15 0 15 -4 27 -10 27 -5 0 -10 -5 -10 -11 0 -8 -6 -7 -17 2 -9 8 -17 12
-19 9 -1 -3 -6 -2 -10 3 -4 4 -2 7 5 7 8 0 11 6 7 16 -5 14 -4 15 8 5 11 -9
15 -8 20 4 3 9 0 15 -10 15 -12 0 -13 4 -3 22 11 20 12 20 29 -16 13 -28 19
-34 23 -22 4 9 3 16 -2 16 -13 0 -21 39 -14 71 l5 28 19 -22 18 -22 1 23 c0
12 -4 22 -10 22 -5 0 -10 9 -10 19 0 11 -4 23 -10 26 -25 15 -7 24 21 10 26
-14 29 -20 24 -45 -7 -30 13 -100 27 -100 5 0 4 9 -2 21 -15 26 -2 40 14 15 6
-10 24 -35 40 -55 15 -20 34 -45 42 -55 12 -17 15 -18 31 -5 46 37 80 48 149
47 38 -1 93 4 122 11 29 7 61 11 72 8 13 -3 22 3 30 24 7 15 19 34 28 41 13
11 13 9 -1 -19 -13 -24 -14 -33 -4 -36 9 -4 8 -8 -3 -16 -10 -7 -11 -11 -2
-11 6 0 21 9 32 20 22 22 50 26 67 9 9 -9 21 -4 48 20 20 17 40 31 45 31 4 0
22 -11 38 -25 17 -14 41 -25 56 -25 14 0 30 -8 35 -19 6 -10 26 -26 45 -35 19
-9 49 -34 66 -57 l32 -40 15 28 c29 56 51 71 104 71 27 0 49 -4 49 -9 0 -5 -5
-9 -11 -9 -5 0 -7 -4 -4 -10 3 -5 0 -7 -8 -4 -8 3 -18 0 -22 -5 -3 -6 -11 -8
-17 -5 -6 4 -8 2 -5 -3 4 -6 0 -14 -8 -17 -10 -3 -14 -14 -11 -30 4 -22 1 -24
-30 -21 -37 4 -43 -8 -21 -38 11 -15 15 -16 41 -2 24 13 31 13 37 3 6 -10 12
-7 24 9 9 13 22 20 30 17 8 -4 15 -1 15 5 0 6 5 11 10 11 6 0 10 -7 10 -16 0
-11 6 -13 19 -9 11 3 22 1 26 -5 6 -10 -14 -15 -44 -10 -9 1 -12 -5 -8 -19 3
-12 1 -19 -4 -15 -5 3 -9 -3 -9 -13 0 -15 -2 -16 -10 -3 -7 12 -12 12 -22 2
-9 -9 -9 -12 3 -13 7 -1 24 -3 37 -4 12 -1 22 3 22 9 0 6 12 13 27 14 15 1 36
11 48 22 12 11 28 20 36 20 8 0 21 6 28 13 11 10 12 9 6 -3 -5 -9 0 -7 14 5
22 19 24 19 36 2 13 -18 41 -24 30 -7 -4 7 2 9 19 4 16 -4 26 -2 27 5 4 29 19
61 30 61 12 0 11 -37 -1 -45 -12 -8 -13 -25 -1 -25 13 0 22 46 15 75 -4 18
-10 23 -18 16 -7 -6 -17 -6 -26 -1 -13 8 -12 10 3 10 21 0 22 8 2 30 -14 16
-14 17 7 16 34 -2 48 31 31 71 -17 42 -17 74 1 99 8 11 12 30 9 45 -4 20 0 27
16 32 18 4 19 8 9 34 -9 24 -8 34 7 57 26 39 58 32 65 -14 3 -23 13 -38 28
-46 13 -6 34 -35 47 -63 19 -40 29 -51 48 -51 29 0 74 -46 87 -90 13 -44 3
-80 -21 -80 -33 0 -22 -40 24 -82 23 -21 41 -44 39 -50 -2 -6 6 -20 17 -32 30
-32 40 -67 34 -122 -5 -44 -52 -146 -73 -159 -14 -9 -27 20 -27 63 -1 49 -8
63 -18 33 -9 -31 -23 -26 -17 7 5 24 4 26 -11 13 -15 -12 -17 -10 -17 15 l-1
29 -18 -22 c-25 -30 -34 -29 -28 3 4 22 0 28 -24 36 -16 5 -29 15 -29 20 0 7
-5 6 -14 -1 -7 -6 -19 -46 -25 -89 -15 -96 -29 -150 -48 -182 l-14 -25 7 25
c3 14 6 36 6 50 -1 14 -1 49 -1 78 0 42 -3 52 -13 46 -7 -5 -17 -9 -23 -10 -5
0 -16 -2 -23 -2 -7 -1 -10 -6 -7 -12 3 -6 -1 -10 -9 -10 -8 0 -18 5 -21 10
-13 20 -27 -3 -21 -34 4 -20 3 -26 -3 -17 -8 12 -11 12 -23 0 -8 -8 -17 -21
-21 -29 -3 -8 -6 3 -7 25 l-2 40 -12 -38 c-6 -21 -18 -42 -25 -47 -8 -4 -11
-15 -8 -24 3 -8 2 -18 -3 -21 -6 -4 -10 -1 -10 4 0 6 -4 11 -10 11 -5 0 -10
-7 -10 -15 0 -19 -73 -38 -113 -29 -26 5 -30 4 -21 -7 6 -8 8 -25 3 -39 -4
-16 -7 -19 -8 -8 -1 21 -31 13 -31 -8 0 -8 -5 -14 -11 -14 -5 0 -7 5 -4 10 3
6 2 10 -4 10 -6 0 -15 9 -21 21 -9 16 -7 27 8 53 l19 32 -34 63 c-34 63 -67
167 -58 181 6 10 -5 40 -14 40 -4 0 -8 -14 -8 -30 0 -18 -10 -41 -25 -58 -25
-28 -25 -41 -2 -134 7 -31 -12 -40 -23 -10 -3 9 -15 30 -26 45 -10 15 -17 37
-14 47 7 26 -5 25 -40 -3 -15 -12 -45 -30 -65 -40 -21 -9 -38 -20 -38 -24 0
-5 46 -31 103 -58 97 -47 103 -52 117 -93 13 -37 39 -60 62 -54 4 1 27 -27 52
-62 44 -62 69 -82 87 -70 5 3 12 -3 16 -13 6 -17 128 -137 201 -198 l33 -28
31 33 c49 54 76 101 99 170 11 36 27 76 34 90 l13 25 7 -28 c12 -47 -2 -118
-34 -178 -17 -31 -37 -75 -46 -98 -8 -23 -23 -54 -34 -69 -15 -22 -18 -39 -14
-97 4 -69 4 -71 -41 -145 -31 -50 -44 -82 -41 -97 5 -23 -3 -53 -15 -53 -4 0
-20 12 -35 26 -18 16 -34 24 -46 20 -11 -3 -28 -9 -39 -12 -14 -5 -20 -2 -20
10 0 10 11 19 30 23 16 3 30 9 30 14 0 13 -12 11 -61 -10 -76 -32 -84 -35 -96
-36 -7 0 -13 -5 -14 -10 0 -6 -4 -17 -9 -25 -14 -26 7 -57 54 -81 49 -24 55
-33 30 -43 -25 -10 -112 -7 -119 4 -3 6 2 10 12 10 14 0 12 3 -7 13 -43 23
-70 42 -70 49 0 3 14 9 30 13 17 4 30 10 30 15 0 10 -51 20 -100 20 -78 0
-155 49 -145 94 15 75 15 133 0 164 -9 18 -21 29 -27 26 -6 -4 -8 2 -6 12 2
11 20 28 41 39 38 21 48 35 23 35 -18 0 -27 25 -14 38 8 8 8 15 -1 26 -10 12
-10 27 -3 63 6 26 9 49 7 51 -16 16 -74 -151 -76 -218 l-1 -35 -7 30 -7 30 -8
-25 c-4 -14 -10 -36 -12 -50 -3 -14 -11 -59 -20 -100 -25 -126 -34 -218 -24
-245 5 -14 6 -25 1 -25 -15 0 -21 58 -21 195 0 165 -17 228 -95 345 -49 74
-75 131 -75 168 0 7 7 24 16 38 19 27 14 101 -6 114 -17 10 -4 46 25 68 79 63
97 84 99 118 1 19 -2 34 -6 34 -7 0 -13 -33 -9 -54 1 -5 -5 -4 -13 3 -13 11
-13 17 0 46 13 31 12 35 -4 44 -11 6 -24 6 -35 0 -10 -6 -26 -7 -37 -4 -11 4
-20 2 -20 -4 0 -6 -6 -11 -13 -11 -7 0 -18 -9 -25 -20 -15 -25 -4 -27 14 -2
12 15 15 15 23 2 7 -11 13 -12 21 -4 17 17 60 5 53 -15 -4 -9 -12 -20 -20 -24
-7 -4 -13 -16 -13 -26 0 -11 -7 -22 -16 -25 -22 -8 -26 -8 -19 4 6 9 -8 15
-29 11 -5 -1 -6 9 -4 23 4 17 1 23 -9 19 -7 -3 -13 -14 -13 -25 0 -10 -4 -16
-10 -13 -5 3 -10 1 -10 -5 0 -7 -6 -10 -12 -7 -7 2 -13 9 -13 15 0 6 -6 17
-12 24 -10 10 -13 9 -13 -1 0 -7 -4 -10 -9 -7 -5 3 -7 15 -4 26 3 11 9 17 14
14 14 -9 10 6 -6 22 -13 14 -15 14 -15 0 0 -9 -5 -16 -11 -16 -6 0 -8 -10 -5
-22 6 -23 6 -23 -6 0 -9 18 -9 28 0 43 7 10 12 28 12 40 0 18 2 19 15 9 12
-10 21 -10 38 -2 12 6 41 13 65 16 58 7 111 22 166 47 45 20 60 39 31 39 -8 0
-15 8 -15 18 0 10 -7 18 -18 18 -13 0 -17 -7 -14 -26 3 -23 0 -25 -32 -25 -20
0 -36 4 -36 9 0 4 -12 5 -27 1 -16 -4 -43 -7 -62 -6 -18 1 -39 -3 -47 -10 -11
-9 -14 -8 -14 5 0 19 -21 21 -39 4 -10 -11 -11 -9 -5 7 6 16 5 18 -7 8 -19
-18 -39 -16 -40 5 0 10 -3 12 -6 4 -10 -24 -23 0 -23 43 0 24 -4 46 -9 50 -15
9 -27 -25 -25 -74 1 -37 7 -49 42 -83 45 -43 51 -58 27 -78 -9 -7 -14 -19 -11
-27 3 -8 -1 -16 -9 -20 -10 -3 -14 -13 -10 -27 2 -11 2 -16 0 -10 -3 6 -17 9
-30 6 -16 -3 -25 0 -25 8 0 9 -8 7 -25 -4 -26 -17 -26 -17 -19 11 4 20 3 24
-4 14 -5 -7 -14 -11 -20 -7 -5 3 -12 -1 -16 -9 -3 -8 -13 -15 -21 -15 -9 0
-13 -4 -10 -10 3 -5 1 -10 -4 -10 -13 0 -14 13 -2 26 6 5 4 19 -5 34 l-15 25
7 -24 c5 -20 3 -23 -11 -18 -9 4 -28 7 -41 7 -13 0 -24 4 -24 9 0 5 9 7 20 4
24 -6 27 12 3 25 -9 6 -14 16 -10 25 8 21 -77 34 -96 15 -30 -30 -28 -54 6
-49 12 2 8 -16 -8 -29 -17 -14 -20 -40 -5 -40 6 0 10 5 10 12 0 6 3 9 6 5 4
-3 4 -13 1 -21 -5 -12 -10 -13 -31 -3 -28 13 -32 22 -16 32 6 4 8 11 5 16 -4
5 2 6 12 2 16 -6 16 -5 5 9 -13 16 -47 18 -68 6 -5 -4 -16 -3 -24 3 -8 5 -22
9 -30 9 -12 -1 -11 -3 3 -11 9 -5 17 -17 17 -25 0 -14 2 -14 16 0 17 17 34 21
34 8 0 -4 -5 -13 -12 -20 -9 -9 -8 -12 4 -12 8 0 21 -7 28 -15 10 -12 9 -16
-4 -21 -9 -3 -16 -11 -16 -18 0 -6 -9 -19 -20 -29 -17 -14 -19 -21 -10 -38 9
-16 14 -18 26 -8 18 15 31 4 16 -13 -5 -7 -12 -24 -14 -38 -2 -14 -9 -24 -16
-22 -6 1 -12 -3 -12 -8 0 -6 6 -10 14 -8 8 2 15 0 15 -4 2 -24 0 -28 -11 -21
-15 9 -20 10 -48 12 -11 0 -20 5 -20 10 0 6 9 8 20 6 12 -2 18 0 15 6 -4 5
-11 7 -16 4 -5 -4 -9 0 -9 7 0 8 -5 6 -11 -4 -5 -10 -20 -18 -32 -17 -12 0
-16 3 -10 6 22 8 14 31 -14 41 -16 5 -37 13 -48 17 -18 7 -18 6 3 -14 12 -12
20 -26 17 -31 -3 -6 8 -23 25 -40 16 -16 30 -36 30 -45 0 -8 -1 -15 -2 -15 -2
0 -24 7 -50 15 -27 8 -48 10 -48 6 0 -5 18 -11 40 -15 22 -3 40 -11 40 -17 0
-6 7 -8 17 -4 14 5 15 3 7 -5 -9 -9 -17 -9 -32 -1 -27 15 -30 14 -35 -7 -2 -9
-3 -7 -2 6 2 16 -2 22 -11 18 -8 -3 -25 -1 -39 4 -15 6 -26 6 -30 0 -5 -9 16
-15 38 -11 4 1 1 -9 -7 -21 -15 -25 -5 -74 14 -63 6 4 7 11 4 17 -4 7 -2 8 5
4 6 -4 9 -11 6 -16 -3 -5 4 -11 15 -15 11 -4 18 -11 15 -16 -9 -14 -41 -11
-55 6 -9 11 -16 12 -25 5 -9 -8 -14 -6 -19 6 -3 9 -4 19 -1 24 7 12 -44 42
-66 38 -11 -2 -19 -7 -19 -13 1 -5 7 -9 15 -7 7 1 16 -1 19 -6 3 -5 -6 -8 -20
-6 -31 3 -54 -4 -54 -17 0 -5 9 -9 20 -9 30 0 24 -20 -8 -26 -15 -3 -35 -16
-45 -30 -17 -23 -17 -24 3 -44 11 -11 25 -18 30 -15 17 10 11 25 -10 25 -11 0
-20 5 -20 11 0 6 7 9 15 5 9 -3 15 0 15 9 0 8 5 15 10 15 6 0 9 -3 9 -7 -1 -5
-1 -20 0 -35 1 -21 6 -28 22 -28 11 0 17 -5 14 -10 -3 -6 -20 -8 -37 -5 -27 5
-30 3 -25 -14 4 -16 -1 -21 -25 -26 -20 -5 -28 -12 -24 -21 6 -17 1 -17 -25
-4 -13 7 -19 7 -19 0 0 -5 5 -10 11 -10 5 0 7 -5 4 -10 -4 -6 -10 -8 -15 -5
-5 3 -10 -5 -12 -17 -2 -16 -13 -26 -35 -33 -37 -10 -44 -25 -13 -25 18 0 19
-2 8 -20 -7 -11 -18 -20 -25 -20 -7 0 -13 -4 -13 -10 0 -5 -6 -9 -12 -7 -8 1
-12 -7 -10 -20 3 -18 -2 -23 -17 -23 -15 0 -21 7 -22 23 0 21 -1 21 -8 2 -5
-11 -6 -25 -4 -31 2 -6 -7 -14 -22 -18 -21 -5 -24 -9 -15 -26 11 -21 -2 -35
-22 -25 -7 4 -4 -1 7 -10 19 -17 19 -17 -12 -12 -29 6 -32 4 -30 -16 2 -19 -2
-22 -26 -19 -22 2 -27 -1 -25 -15 2 -10 -2 -17 -9 -16 -7 2 -10 -4 -7 -12 4
-9 0 -15 -10 -15 -9 0 -16 -4 -16 -10 0 -5 7 -10 15 -10 8 0 15 -5 15 -11 0
-5 -4 -7 -10 -4 -5 3 -20 -1 -32 -11 -16 -11 -17 -15 -5 -11 9 4 17 2 17 -3 0
-6 -9 -10 -20 -10 -12 0 -20 -6 -19 -12 3 -26 -1 -39 -11 -33 -13 8 -13 -8 0
-21 7 -7 1 -10 -17 -10 -24 1 -28 -3 -28 -26 1 -23 -4 -28 -23 -28 -20 0 -22
-3 -13 -14 10 -12 8 -13 -8 -9 -12 3 -21 1 -21 -6 0 -6 5 -11 11 -11 5 0 7 -4
4 -10 -3 -5 -15 -10 -25 -10 -10 0 -21 -6 -24 -12 -3 -7 -3 -3 0 10 6 24 -7
29 -25 9 -12 -16 20 -49 109 -113 30 -21 68 -54 84 -72 19 -21 32 -29 40 -23
6 5 35 14 64 20 92 19 160 66 220 152 14 20 14 21 -9 9 -19 -10 -22 -10 -12 0
6 7 22 18 35 24 15 8 22 20 21 35 -2 12 1 20 5 17 5 -3 16 13 26 35 10 21 22
37 27 34 5 -4 9 5 9 19 0 14 14 45 30 69 16 25 30 48 30 51 0 4 9 17 20 29 11
12 18 27 16 34 -3 7 1 13 8 13 13 0 96 112 96 130 0 6 5 10 11 10 6 0 8 7 5
16 -5 14 -4 15 8 5 9 -7 17 -8 20 -2 3 5 0 12 -6 15 -10 4 -10 7 -1 12 6 3 21
14 34 25 39 34 42 31 64 -107 18 -110 18 -247 1 -429 -13 -134 -29 -205 -46
-205 -4 0 -35 -25 -69 -55 -34 -30 -69 -55 -79 -55 -9 0 -26 12 -38 27 -19 24
-24 26 -55 17 l-34 -10 -3 -83 c-3 -82 -4 -85 -42 -129 -39 -44 -44 -58 -40
-114 1 -14 -3 -29 -9 -33 -6 -3 -11 -15 -11 -25 0 -10 -11 -31 -24 -47 -12
-15 -31 -45 -40 -65 -19 -40 -164 -184 -209 -207 -23 -12 -38 -13 -85 -3 -63
13 -146 51 -179 81 -25 23 -47 20 -118 -20 -46 -26 -58 -28 -128 -25 l-77 4 0
-184 0 -184 1083 0 1082 0 21 38 c11 20 25 36 31 35 6 -1 10 5 9 15 0 9 5 16
12 14 8 -1 11 2 8 7 -4 5 11 38 33 73 22 35 74 124 117 198 42 74 90 154 106
178 16 23 56 95 90 160 53 102 97 177 87 147 -2 -5 -32 -66 -66 -135 -59 -121
-95 -200 -89 -200 1 0 25 35 54 78 29 42 62 88 73 102 19 23 19 22 -2 -15 -12
-22 -41 -74 -64 -115 -23 -41 -67 -119 -99 -172 -33 -56 -54 -102 -50 -109 5
-8 3 -9 -6 -4 -10 6 -11 1 -6 -21 4 -16 12 -30 17 -32 13 -5 -1 -84 -19 -104
-13 -16 -13 -18 2 -24 25 -10 19 -33 -11 -40 -26 -6 -72 -49 -73 -66 0 -5 9
-8 20 -8 13 0 25 11 34 32 l14 33 7 -32 c4 -18 11 -33 15 -33 11 0 21 30 14
41 -3 5 9 9 26 9 18 0 29 -4 25 -10 -3 -5 -1 -10 5 -10 6 0 8 -4 5 -10 -3 -5
4 -12 17 -15 13 -3 1141 -4 2508 -3 2538 4 2549 4 2584 39 6 5 16 9 24 9 41 0
42 12 42 404 0 207 -3 376 -7 376 -5 0 -69 -9 -143 -20 -178 -27 -469 -37
-636 -21 -135 13 -344 43 -429 62 -245 54 -318 76 -520 154 -350 135 -555 267
-670 430 -81 115 -94 193 -49 283 22 44 97 122 117 122 3 0 27 13 54 30 26 16
104 50 173 76 108 40 141 48 240 55 63 6 128 13 144 17 36 10 43 29 56 164 15
151 36 223 75 252 34 27 167 75 207 77 13 0 41 7 63 14 38 13 36 13 -60 12
-107 -2 -338 32 -358 52 -6 6 -22 11 -35 11 -20 0 -22 2 -9 14 12 12 31 13
103 6 49 -4 107 -13 129 -18 22 -6 84 -13 138 -17 l97 -7 2 61 c1 34 2 69 2
79 1 9 -9 21 -21 27 -28 12 -29 25 -3 58 17 22 19 29 9 46 -11 16 -8 24 15 52
31 36 94 89 107 89 5 0 27 29 50 64 40 63 61 78 117 84 6 1 12 13 12 27 0 18
8 29 28 37 15 7 44 23 64 35 32 20 41 21 63 11 26 -12 36 -6 48 25 1 5 14 3
28 -3 21 -10 32 -9 57 4 45 23 60 20 104 -20 38 -34 67 -41 59 -13 -14 50 -13
59 5 59 11 0 37 -14 58 -30 30 -23 50 -30 83 -30 35 0 48 -5 66 -27 40 -49 70
-73 88 -73 19 0 99 -74 99 -92 0 -5 12 -8 28 -6 26 3 27 2 25 -44 -1 -27 3
-48 7 -48 5 0 17 -13 26 -29 15 -25 21 -28 40 -21 14 6 26 5 29 0 21 -33 25
12 25 250 0 176 -3 260 -11 260 -5 0 -42 -5 -80 -12 -50 -8 -75 -17 -87 -33
-9 -11 -25 -24 -35 -28 -10 -4 -16 -11 -13 -16 6 -10 -19 -23 -28 -14 -3 3 -2
18 1 34 6 30 5 31 -82 44 -60 9 -75 15 -75 30 0 20 24 25 135 25 l104 0 -14
27 c-16 31 -4 56 17 35 7 -7 20 -12 29 -12 10 0 27 -13 39 -30 28 -39 70 -42
70 -5 0 16 6 25 15 25 13 0 15 30 15 210 l0 210 -33 0 c-18 0 -42 -6 -53 -14
-12 -8 -43 -18 -70 -21 -40 -4 -53 -2 -72 14 -18 15 -20 24 -13 43 6 12 10 17
10 11 1 -18 32 -16 60 3 16 12 20 19 12 27 -6 6 -11 20 -11 30 0 18 5 19 63
14 34 -3 72 -9 85 -13 l22 -6 0 485 c0 379 -3 486 -12 490 -10 4 -10 7 0 18 7
7 12 39 12 76 l0 63 -80 0 -80 0 0 -30 c0 -16 -4 -30 -10 -30 -5 0 -10 -9 -10
-20 0 -11 -5 -20 -11 -20 -5 0 -7 -4 -4 -10 7 -12 -7 -13 -21 -2 -24 20 -82
32 -108 22 -39 -15 -59 -13 -52 5 8 22 -12 18 -24 -5 -6 -11 -17 -20 -24 -20
-17 0 -36 -51 -36 -96 0 -38 -17 -46 -22 -11 -4 28 14 81 47 140 32 59 32 77
-1 77 -25 0 -26 -3 -21 -34 7 -46 -9 -65 -63 -72 -68 -8 -87 -25 -95 -83 -4
-27 -4 -59 0 -70 5 -17 2 -21 -14 -21 -27 0 -36 18 -18 38 8 9 17 34 19 56 4
35 2 39 -24 48 -22 8 -28 16 -28 39 0 30 -17 37 -54 23 -22 -8 -20 -22 7 -45
l22 -18 -31 8 c-28 8 -36 5 -67 -26 -32 -30 -38 -33 -56 -21 -25 16 -27 25
-21 110 l5 68 -88 0 c-77 0 -88 -2 -83 -16 3 -9 6 -27 6 -40 0 -14 7 -27 16
-31 16 -6 84 26 84 39 0 5 4 8 9 8 14 0 21 -43 10 -56 -6 -7 -8 -23 -4 -34 4
-14 1 -28 -10 -41 -25 -27 -4 -49 49 -49 37 -1 45 -5 81 -51 30 -38 41 -63 45
-97 4 -34 9 -46 19 -44 34 7 34 -48 1 -98 -9 -14 -22 -45 -29 -70 -7 -25 -26
-78 -43 -118 -23 -59 -29 -87 -27 -138 1 -39 -3 -70 -9 -76 -9 -9 -12 -5 -12
15 0 36 -55 156 -74 163 -9 3 -16 12 -16 20 0 16 -76 74 -98 74 -8 0 -12 6 -8
15 8 23 -26 19 -47 -5 -9 -11 -29 -20 -44 -20 -74 0 -177 -126 -190 -233 -8
-60 -37 -97 -76 -98 l-32 -1 33 -9 c35 -11 40 -20 17 -39 -8 -7 -15 -21 -15
-31 0 -16 -5 -18 -25 -13 -18 4 -25 2 -25 -9 0 -31 -78 -36 -230 -13 -92 14
-164 34 -128 35 11 1 16 8 13 21 -2 11 0 22 6 25 5 4 9 13 9 22 0 13 -9 15
-47 11 -27 -3 -59 -2 -73 2 l-25 7 25 6 c14 4 50 8 80 9 l55 3 12 48 c10 41 8
63 -11 158 -27 127 -23 155 37 294 26 61 39 81 55 83 14 2 22 11 22 22 0 32
11 50 31 50 15 0 19 -7 19 -39 0 -37 2 -39 35 -43 20 -2 35 0 35 7 0 26 -14
55 -24 52 -13 -4 -36 17 -36 32 0 6 5 11 10 11 6 0 10 -7 10 -15 0 -8 5 -15
10 -15 13 0 13 16 -1 43 -11 19 -13 29 -18 75 -1 9 -15 10 -56 6 -61 -7 -63
-5 -44 56 15 49 20 130 9 130 -13 0 -80 -66 -80 -79 0 -6 -7 -11 -15 -11 -19
0 -19 19 0 44 35 47 41 46 -414 46 l-429 0 -8 -77 c-11 -109 -11 -103 -13
-153 -1 -30 -4 -40 -10 -30 -5 8 -5 47 0 85 4 39 8 94 8 123 l1 52 -175 0
-175 -1 -1 -62 c-1 -34 -5 -75 -10 -92 -5 -20 -6 -9 -3 35 3 36 3 62 -1 59 -9
-9 -32 -234 -45 -439 -11 -169 -12 -176 -37 -194 -13 -10 -29 -28 -33 -40 -9
-20 -9 -20 -9 2 -1 21 -6 23 -38 22 -67 -3 -64 -6 -59 63 5 65 13 97 25 97 3
0 5 44 3 97 -2 63 -7 92 -13 82 -5 -8 -9 -35 -9 -61 0 -27 -4 -48 -9 -48 -5 0
-11 -10 -13 -22 -2 -12 -9 -23 -17 -26 -10 -3 -13 3 -9 26 3 23 0 32 -14 35
-28 8 -24 55 5 59 19 3 22 8 19 38 -2 36 -17 97 -33 137 -4 12 -24 29 -44 37
-20 9 -43 29 -53 46 -14 26 -22 30 -46 27 -25 -3 -31 1 -47 37 -10 23 -19 51
-19 64 0 21 -3 22 -89 22 l-89 0 -37 -65 c-20 -36 -45 -71 -56 -78 -10 -6 -19
-15 -19 -20 0 -4 -5 -13 -10 -20 -6 -7 -18 -23 -29 -37 -17 -22 -21 -23 -36
-10 -15 12 -18 12 -26 -3 -6 -9 -18 -17 -27 -17 -16 -1 -16 -2 1 -14 14 -11
15 -15 3 -25 -17 -14 -25 9 -22 67 0 25 -3 38 -10 35 -6 -2 -23 1 -39 7 -33
12 -35 11 -39 -24 -4 -35 -17 -47 -53 -48 -30 -1 -30 -1 -25 -52 11 -120 37
-133 170 -80 90 36 138 42 69 9 -37 -17 -52 -44 -60 -107 -3 -21 -17 -60 -31
-89 -30 -58 -33 -84 -11 -75 11 4 15 -2 15 -23 0 -57 13 -92 48 -125 31 -31
35 -39 33 -87 0 -33 -7 -59 -17 -71 -10 -10 -13 -18 -8 -18 22 -1 -33 -30 -57
-30 -21 0 -29 7 -38 31 -6 17 -9 35 -6 39 3 4 -9 7 -27 6 -24 -1 -35 5 -44 22
-8 17 -13 20 -18 10 -3 -7 -4 -3 -2 9 2 13 0 26 -5 29 -5 3 -9 22 -9 42 0 33
-4 39 -31 49 -31 12 -31 12 -27 74 4 56 8 65 37 90 52 43 79 109 46 109 -19 0
-35 40 -35 85 0 18 -7 40 -15 49 -8 8 -15 19 -15 24 0 5 -9 17 -20 27 -18 16
-20 16 -20 2 0 -10 -8 -17 -20 -17 -11 0 -20 5 -20 10 0 6 -7 10 -17 10 -14 0
-14 2 2 20 10 11 22 17 27 14 14 -9 1 29 -29 91 l-24 50 22 18 22 18 -22 6
c-20 5 -22 11 -19 44 l4 39 -140 0 -139 0 21 -23 c12 -13 22 -35 22 -50 0 -15
4 -27 9 -27 4 0 8 -18 8 -40 0 -31 -3 -40 -17 -40 -10 0 -21 8 -25 18 -5 14
-9 11 -20 -15 -8 -18 -18 -33 -22 -33 -4 0 -30 47 -57 105 l-49 105 -1388 0
-1388 0 5 -97 c2 -53 7 -100 10 -105 8 -13 -6 -49 -17 -42 -5 3 -7 9 -4 14 3
4 -2 41 -10 81 -9 39 -13 80 -10 91 3 10 8 27 11 38 5 18 1 20 -55 20 l-60 0
9 -27 c5 -16 16 -95 25 -178 9 -82 23 -204 31 -270 8 -67 14 -144 14 -172 0
-29 5 -64 10 -79 15 -40 60 -378 59 -444 l0 -25 -10 24 c-10 24 -19 77 -44
251 -7 52 -29 201 -49 330 -33 222 -57 402 -71 533 -5 46 -10 57 -25 57 -16 0
-17 -5 -10 -37z m107 -30 c-3 -10 -5 -4 -5 12 0 17 2 24 5 18 2 -7 2 -21 0
-30z m3103 -15 c0 -18 -10 -44 -21 -58 l-21 -25 7 29 c3 15 9 41 12 57 8 39
23 37 23 -3z m-264 -60 c-13 -121 -29 -213 -39 -223 -6 -7 -7 3 -3 30 6 33 36
244 36 253 0 1 3 2 6 2 3 0 3 -28 0 -62z m1768 25 c5 -37 9 -109 7 -147 -1
-15 -4 -16 -15 -7 -11 9 -15 9 -20 -1 -3 -7 -3 19 1 57 3 39 6 85 5 103 -1 44
15 41 22 -5z m-1386 -25 c7 -7 12 -29 12 -49 0 -20 7 -42 14 -49 11 -9 13 -18
5 -37 -7 -18 -6 -30 1 -37 5 -5 10 -19 10 -29 0 -15 -5 -18 -25 -13 -24 6 -25
4 -25 -37 0 -53 -18 -109 -34 -104 -7 2 -11 35 -12 88 -1 46 -4 92 -9 102 -4
10 -2 23 5 32 12 14 17 102 6 112 -8 8 14 33 28 33 7 0 17 -5 24 -12z m2562
-55 c0 -16 -6 -23 -20 -23 -17 0 -19 5 -16 33 3 17 5 37 6 42 2 19 30 -29 30
-52z m1727 -15 c-3 -8 -6 -5 -6 6 -1 11 2 17 5 13 3 -3 4 -12 1 -19z m-3947
-18 c0 -5 -9 -10 -21 -10 -11 0 -17 5 -14 10 3 6 13 10 21 10 8 0 14 -4 14
-10z m3853 -59 c10 -61 3 -101 -18 -101 -8 0 -15 6 -16 13 0 10 -2 10 -6 0 -2
-7 -14 -13 -25 -13 -15 0 -18 4 -13 18 3 9 13 41 20 70 8 29 17 57 20 63 14
22 30 0 38 -50z m84 37 c-3 -8 -6 -5 -6 6 -1 11 2 17 5 13 3 -3 4 -12 1 -19z
m-7388 -85 c1 -37 0 -65 -3 -63 -7 8 -13 139 -6 135 4 -2 8 -35 9 -72z m5582
30 c7 -8 7 -18 0 -32 l-11 -20 -36 21 c-22 13 -33 26 -30 35 3 8 6 21 6 29 0
13 5 12 31 -3 17 -10 35 -23 40 -30z m-2702 -295 c7 -21 18 -38 25 -38 17 0
29 27 16 35 -16 10 -15 184 0 199 7 7 10 1 10 -16 0 -15 5 -30 10 -33 6 -3 10
-15 10 -26 0 -11 6 -27 14 -35 16 -16 66 -19 66 -4 0 13 34 7 54 -9 15 -12 18
-9 33 28 9 22 22 41 30 41 16 0 16 -8 -2 -40 -34 -59 -3 -87 71 -65 27 8 50
12 53 10 6 -6 -20 -54 -28 -53 -59 7 -94 -33 -84 -95 5 -35 4 -37 -21 -37 -41
0 -66 -17 -66 -46 0 -33 30 -84 49 -84 12 0 12 -3 3 -12 -7 -7 -12 -19 -12
-28 0 -14 -13 -17 -77 -17 l-78 -1 38 15 c44 19 46 36 10 76 -63 66 -60 60
-39 78 14 12 17 21 11 35 -8 18 -9 18 -12 -3 -5 -28 -19 -30 -26 -3 -4 14 -14
20 -35 20 -33 0 -41 -11 -34 -47 3 -16 11 -23 27 -23 36 0 40 -28 19 -128 -3
-17 -1 -21 7 -16 8 4 9 3 5 -4 -4 -7 -14 -12 -22 -12 -8 0 -12 -5 -9 -11 4 -5
4 -22 0 -37 -5 -21 -8 -24 -15 -11 -5 8 -7 27 -6 42 2 14 -1 24 -5 21 -5 -3
-9 18 -9 46 0 70 -12 90 -56 90 -34 0 -35 1 -29 30 5 25 4 29 -9 24 -9 -3 -16
-10 -16 -15 0 -5 -7 -9 -15 -9 -7 0 -19 -8 -24 -17 -10 -17 -11 -16 -17 4 -5
19 -8 20 -20 8 -30 -30 -56 11 -38 59 9 22 21 20 56 -9 28 -24 32 -25 48 -10
11 10 18 30 18 52 0 19 5 40 11 46 6 6 12 20 12 32 1 16 2 17 6 3 10 -40 18
-13 18 64 1 46 5 124 10 173 l9 90 22 -145 c12 -80 27 -162 33 -182z m-2868
141 l-9 -44 -1 41 c-1 22 2 44 6 47 12 12 13 1 4 -44z m4744 -19 c-4 -12 -9
-19 -12 -17 -3 3 -2 15 2 27 4 12 9 19 12 17 3 -3 2 -15 -2 -27z m-661 4 c3
-8 2 -12 -4 -9 -6 3 -10 10 -10 16 0 14 7 11 14 -7z m-77 -46 c-3 -8 -6 -5 -6
6 -1 11 2 17 5 13 3 -3 4 -12 1 -19z m-697 -20 c0 -18 -2 -20 -9 -8 -6 8 -7
18 -5 22 9 14 14 9 14 -14z m1430 12 c0 -5 -2 -10 -4 -10 -3 0 -8 5 -11 10 -3
6 -1 10 4 10 6 0 11 -4 11 -10z m-888 -42 c-12 -12 -35 -1 -27 12 3 5 13 6 21
3 10 -4 12 -9 6 -15z m8 -28 c0 -5 -4 -10 -10 -10 -5 0 -10 5 -10 10 0 6 5 10
10 10 6 0 10 -4 10 -10z m1556 -22 c-3 -13 -6 -34 -7 -48 -1 -16 -4 -11 -8 15
-8 44 -5 55 11 55 6 0 8 -10 4 -22z m-2729 -20 c-3 -7 -5 -2 -5 12 0 14 2 19
5 13 2 -7 2 -19 0 -25z m1168 2 c-3 -5 -1 -11 5 -15 5 -3 10 3 10 14 0 12 5
21 10 21 6 0 10 -14 10 -31 0 -24 -3 -30 -16 -25 -9 3 -27 6 -40 6 -29 0 -34
36 -6 43 21 4 34 -2 27 -13z m-649 -34 c3 -13 0 -34 -6 -46 -16 -30 -35 -11
-35 36 0 26 4 34 17 34 10 0 20 -10 24 -24z m-3249 -8 c-3 -8 -6 -5 -6 6 -1
11 2 17 5 13 3 -3 4 -12 1 -19z m6875 -10 c7 -13 13 -25 13 -28 11 -67 17 -80
39 -80 30 0 38 -9 22 -25 -7 -7 -24 -11 -39 -8 -24 5 -27 2 -27 -21 0 -16 -5
-26 -15 -26 -24 0 -17 -18 7 -22 13 -2 29 -15 36 -30 9 -19 21 -28 38 -28 15
0 24 -6 24 -15 0 -10 -10 -15 -31 -15 -24 0 -30 -4 -25 -16 8 -21 -63 -51
-136 -56 -55 -4 -57 -3 -69 24 -15 37 3 62 42 54 15 -3 29 -2 32 1 8 7 -32 38
-61 47 -12 4 -20 11 -17 16 3 5 20 3 38 -4 44 -18 97 -27 97 -17 0 5 -21 14
-47 21 -77 21 -100 36 -113 76 -12 34 -11 38 11 55 26 20 74 25 84 9 12 -19
20 -10 43 50 13 33 28 60 32 60 5 0 15 -10 22 -22z m-3012 -73 c0 -14 -4 -25
-10 -25 -5 0 -10 11 -10 25 0 14 5 25 10 25 6 0 10 -11 10 -25z m457 -32 c-3
-10 -5 -4 -5 12 0 17 2 24 5 18 2 -7 2 -21 0 -30z m-113 -70 c3 -21 6 -51 6
-66 0 -22 4 -28 18 -25 18 4 19 5 21 72 1 49 14 59 61 49 24 -4 30 -11 30 -30
0 -19 4 -24 15 -19 9 3 18 -1 21 -9 4 -8 15 -15 26 -15 10 0 17 -3 14 -8 -2
-4 68 -8 157 -9 212 -3 370 -12 379 -21 4 -4 -13 -7 -37 -7 -25 0 -45 -3 -45
-7 0 -5 -16 -8 -36 -8 -30 0 -34 -2 -25 -14 8 -10 9 -16 1 -21 -5 -3 -13 1
-16 9 -8 20 -24 21 -24 1 0 -10 -10 -15 -31 -15 -16 0 -28 4 -25 9 3 4 -12 5
-34 1 -22 -4 -55 -6 -75 -4 -40 3 -47 -11 -10 -20 27 -7 34 -26 10 -26 -16 0
-17 -3 -19 -60 -1 -29 -5 -36 -25 -38 -31 -5 -41 7 -34 40 3 18 12 28 27 30
15 2 21 10 21 28 0 23 -3 25 -42 22 -25 -2 -57 4 -78 14 -23 11 -48 15 -71 11
-19 -3 -88 -1 -152 4 -152 13 -211 14 -224 1 -6 -6 -31 -4 -71 6 l-62 16 44 8
c25 4 51 14 59 22 11 11 20 12 38 4 13 -6 24 -14 24 -17 0 -9 119 -6 127 4 5
4 3 5 -3 2 -6 -4 -16 5 -22 19 -11 23 -13 24 -36 9 -21 -14 -24 -14 -37 1 -28
34 35 89 107 93 17 1 23 -6 28 -36z m176 18 c0 -6 -4 -13 -10 -16 -5 -3 -10 1
-10 9 0 9 5 16 10 16 6 0 10 -4 10 -9z m-1380 -11 c0 -5 -4 -10 -10 -10 -5 0
-10 5 -10 10 0 6 5 10 10 10 6 0 10 -4 10 -10z m2394 -74 c18 -13 43 -26 57
-29 22 -4 22 -4 -5 -6 -21 -1 -27 -5 -22 -16 3 -8 1 -15 -4 -15 -6 0 -9 -3 -7
-7 2 -9 -6 -13 -24 -13 -8 0 -8 5 1 15 11 13 8 15 -19 15 -17 0 -31 5 -31 10
0 6 15 10 33 10 l32 0 -30 20 c-16 11 -45 23 -62 26 -34 6 -43 19 -20 27 20 7
66 -10 101 -37z m-2696 -5 c20 -5 54 -12 75 -16 31 -5 37 -10 37 -30 0 -30
-23 -32 -96 -10 -27 8 -59 15 -71 15 -26 0 -29 16 -11 55 9 21 13 23 20 11 5
-9 25 -20 46 -25z m1342 19 c0 -5 -4 -10 -9 -10 -6 0 -13 5 -16 10 -3 6 1 10
9 10 9 0 16 -4 16 -10z m-886 -42 c10 -9 9 -15 -7 -31 -10 -10 -16 -25 -13
-33 3 -8 2 -14 -3 -14 -4 0 -8 -7 -8 -15 0 -8 3 -15 7 -15 3 0 6 -9 7 -20 1
-11 -2 -20 -8 -20 -5 0 -9 -7 -9 -15 0 -8 5 -15 12 -15 6 0 9 -3 6 -6 -4 -3
-21 3 -40 12 -31 17 -32 19 -10 22 20 3 23 8 17 30 -8 31 -42 82 -56 82 -5 0
-9 6 -9 14 0 18 28 25 58 14 16 -6 24 -4 28 7 7 18 11 19 28 3z m3541 -70 c7
-37 7 -38 -24 -38 -38 0 -91 25 -91 44 0 8 14 13 38 14 21 1 41 8 47 16 13 20
22 9 30 -36z m-3095 -2 c1 -20 2 -20 14 -3 7 9 24 17 37 17 23 0 24 -3 27 -76
5 -102 -16 -125 -84 -89 -16 8 -39 15 -51 15 -19 0 -23 6 -24 33 -1 29 -2 28
-15 -11 -3 -10 -9 -8 -23 5 -22 21 -25 64 -4 56 8 -3 13 3 13 16 0 25 26 39
43 22 17 -17 46 14 39 42 -5 20 -4 20 11 8 9 -7 17 -23 17 -35z m1300 34 c0
-5 -9 -10 -20 -10 -11 0 -20 5 -20 10 0 6 9 10 20 10 11 0 20 -4 20 -10z m300
6 c0 -8 -51 -13 -56 -5 -3 5 9 9 25 9 17 0 31 -2 31 -4z m-2325 -56 c0 -30 5
-37 35 -51 l35 -17 -36 -7 c-80 -15 -99 3 -84 82 5 28 10 34 28 31 18 -2 22
-10 22 -38z m1242 34 c-3 -3 -12 -4 -19 -1 -8 3 -5 6 6 6 11 1 17 -2 13 -5z
m81 -71 c-3 -66 -4 -68 -30 -71 l-28 -3 0 70 0 71 30 0 31 0 -3 -67z m130 5
l-3 -63 -47 -3 -48 -3 0 50 c0 73 5 81 57 81 l44 0 -3 -62z m639 36 c-3 -3
-12 -4 -19 -1 -8 3 -5 6 6 6 11 1 17 -2 13 -5z m-991 -61 c-5 -43 -25 -73 -48
-73 -11 0 -10 63 2 94 6 17 17 26 31 26 20 0 21 -4 15 -47z m1569 7 c0 -18 -6
-26 -23 -28 -13 -2 -25 3 -28 12 -10 26 4 48 28 44 17 -2 23 -10 23 -28z
m-2106 -23 c6 -8 8 -17 4 -20 -7 -8 -33 11 -33 24 0 13 16 11 29 -4z m2376 -7
c-3 -5 -12 -10 -18 -10 -7 0 -6 4 3 10 19 12 23 12 15 0z m-3961 -116 c9 -23
7 -112 -2 -118 -4 -2 -9 5 -9 17 -1 11 -10 32 -21 46 -29 41 -33 59 -14 64 32
9 40 7 46 -9z m-64 -48 c0 -2 -7 -6 -15 -10 -8 -3 -15 -1 -15 4 0 6 7 10 15
10 8 0 15 -2 15 -4z m5 -46 c3 -6 -1 -7 -9 -4 -18 7 -21 14 -7 14 6 0 13 -4
16 -10z m25 -95 c-6 -7 -7 -15 -3 -17 4 -3 2 -3 -5 -1 -8 1 -21 3 -30 4 -12 0
-11 3 5 9 12 5 26 22 30 37 7 26 8 27 11 5 2 -13 -1 -29 -8 -37z m806 -41 c2
-16 6 -34 9 -40 2 -7 -2 -29 -9 -49 l-13 -38 -7 64 c-9 84 7 136 20 63z m4774
-168 c0 -20 -12 -27 -26 -15 -7 6 -10 17 -8 24 7 16 34 8 34 -9z m-7070 -31
c0 -8 -9 -13 -19 -12 -16 1 -18 5 -10 19 11 20 29 15 29 -7z m35 5 c-3 -5 -11
-10 -16 -10 -6 0 -7 5 -4 10 3 6 11 10 16 10 6 0 7 -4 4 -10z m-92 -35 c-3 -9
-8 -14 -10 -11 -3 3 -2 9 2 15 9 16 15 13 8 -4z m1113 -23 c-9 -9 -37 8 -31
18 5 8 11 7 21 -1 8 -6 12 -14 10 -17z m-56 -49 c0 -22 -2 -25 -10 -13 -13 20
-13 40 0 40 6 0 10 -12 10 -27z m324 -33 c3 0 6 8 7 18 1 26 20 -39 20 -70 0
-33 -38 -78 -65 -77 -12 0 -61 11 -111 24 -61 16 -89 27 -87 37 2 10 -1 9 -10
-2 -18 -21 -48 -24 -48 -5 0 8 -5 14 -11 12 -14 -2 -19 37 -7 55 5 9 8 6 8 -9
0 -13 5 -23 11 -23 5 0 7 5 4 10 -3 6 -1 10 4 10 6 0 11 -6 12 -12 0 -10 2
-10 6 0 4 10 8 10 19 1 11 -9 14 -8 15 7 0 11 3 14 6 7 2 -7 13 -13 24 -13 10
0 19 6 19 13 0 7 4 6 10 -4 6 -10 20 -14 42 -12 18 2 41 4 50 4 10 0 21 5 24
11 4 6 10 5 15 -3 6 -10 9 -3 9 21 1 31 2 33 14 18 7 -10 16 -18 20 -18z
m-1249 10 c-3 -5 -15 -15 -26 -21 -19 -10 -20 -9 -9 10 6 12 18 21 26 21 8 0
12 -4 9 -10z m869 -5 c11 -8 15 -15 10 -15 -6 0 -19 7 -30 15 -10 8 -14 14 -9
14 6 0 19 -6 29 -14z m30 -36 c-14 -16 -15 -19 -2 -14 16 6 34 -22 22 -34 -4
-3 -9 0 -11 7 -3 6 -9 12 -14 12 -4 0 -6 -7 -3 -15 4 -8 2 -15 -4 -15 -11 0
-22 23 -22 45 0 7 9 15 21 18 16 4 19 11 14 29 -5 20 -5 21 5 5 9 -15 8 -22
-6 -38z m-79 -42 c5 -22 9 -26 12 -14 2 9 9 17 14 17 13 0 11 -12 -5 -32 -13
-18 -27 -24 -24 -10 4 21 -16 63 -28 58 -16 -6 -17 -4 -8 18 9 23 30 4 39 -37z
m-229 6 c-7 -7 -26 7 -26 19 0 6 6 6 15 -2 9 -7 13 -15 11 -17z m-731 -13 c-3
-5 -11 -10 -16 -10 -6 0 -7 5 -4 10 3 6 11 10 16 10 6 0 7 -4 4 -10z m1169
-39 c11 -1 16 -4 12 -8 -9 -10 -97 -3 -116 8 -10 6 2 8 35 5 28 -3 59 -5 69
-5z m-298 -38 c-10 -10 -19 5 -10 18 6 11 8 11 12 0 2 -7 1 -15 -2 -18z m1574
-62 c0 -6 -10 -8 -21 -6 -33 6 -36 15 -6 15 15 0 27 -4 27 -9z m-185 -51 c-53
-24 -70 -24 -25 0 19 11 42 19 50 19 8 0 -3 -9 -25 -19z m2348 -18 l62 -7 3
-39 3 -39 -68 6 c-37 4 -81 7 -96 7 -25 0 -27 3 -22 23 11 35 35 68 45 62 6
-4 38 -9 73 -13z m-2420 -17 c4 -8 2 -17 -2 -20 -5 -3 -12 2 -15 11 -3 8 -10
13 -15 9 -5 -3 -12 -1 -16 5 -4 6 4 10 18 10 14 0 27 -7 30 -15z m91 -1 c23
-9 20 -24 -4 -24 -11 0 -20 7 -20 15 0 17 2 18 24 9z m66 2 c0 -11 -19 -15
-25 -6 -3 5 1 10 9 10 9 0 16 -2 16 -4z m-10 -57 c0 -5 -5 -9 -11 -9 -5 0 -7
5 -4 10 3 6 1 10 -4 10 -6 0 -11 5 -11 11 0 8 5 8 15 -1 8 -7 15 -16 15 -21z
m1950 -3 c0 -26 -5 -36 -21 -41 -25 -8 -157 4 -164 15 -8 13 42 40 77 41 18 0
42 4 53 9 42 18 55 12 55 -24z m-2113 2 c-3 -8 -6 -5 -6 6 -1 11 2 17 5 13 3
-3 4 -12 1 -19z m948 -58 c-11 -5 -47 -9 -80 -9 -33 0 -69 4 -80 9 -13 6 15 9
80 9 65 0 93 -3 80 -9z m2680 -139 c-11 -9 -97 -32 -103 -27 -4 5 78 34 98 35
8 1 10 -2 5 -8z m-1407 -26 c3 -3 -13 -5 -36 -5 -22 0 -49 -3 -59 -7 -16 -6
-16 -5 -4 11 11 13 24 16 54 12 22 -3 42 -8 45 -11z m167 -5 c-3 -5 -19 -10
-36 -10 -16 0 -29 5 -29 10 0 6 16 10 36 10 21 0 33 -4 29 -10z m210 -4 c30
-3 30 -3 37 -82 10 -103 17 -109 106 -77 94 33 220 53 321 52 l86 -2 -115 -8
c-68 -5 -151 -19 -203 -34 -48 -14 -94 -25 -101 -25 -8 0 -26 -16 -41 -37
l-28 -36 22 -18 c24 -20 24 -19 12 -134 -10 -93 -24 -141 -40 -137 -7 1 -11
-16 -11 -49 0 -27 -7 -71 -15 -97 -32 -97 -123 -234 -177 -266 -50 -30 -50
-16 -1 32 28 26 53 57 57 70 4 12 14 22 23 22 9 0 13 6 9 15 -3 9 0 15 9 15 8
0 27 34 46 83 34 88 49 188 30 210 -14 17 -4 27 25 27 24 0 34 22 34 82 0 40
-9 70 -19 64 -11 -7 -95 -20 -133 -21 l-38 0 0 -45 c0 -50 19 -95 21 -50 l1
25 7 -25 c5 -20 15 -26 46 -31 l40 -6 -37 -2 c-24 0 -41 -7 -47 -18 -10 -17
-10 -17 -11 -1 0 22 -15 31 -40 23 -17 -5 -20 -12 -15 -39 6 -28 3 -34 -21
-45 -36 -16 -48 -3 -47 51 l1 43 -10 -37 c-12 -46 -24 -48 -33 -8 -7 33 -24
41 -26 13 -2 -34 3 -58 15 -66 6 -4 -5 -6 -24 -5 -34 3 -35 4 -33 48 0 25 -1
33 -4 17 -2 -15 -8 -25 -13 -22 -5 3 -7 -13 -5 -36 4 -62 -3 -79 -35 -79 -46
0 -56 -23 -29 -67 15 -24 19 -38 11 -41 -7 -2 -8 -11 -2 -28 5 -13 6 -24 1
-24 -22 0 -105 121 -100 147 1 4 -6 26 -16 48 -9 22 -18 45 -20 50 -1 6 -5 18
-8 28 -16 41 -17 51 -6 57 10 7 19 52 23 120 1 23 5 25 31 22 17 -3 33 -11 38
-18 5 -9 24 -12 66 -9 44 4 60 1 64 -9 4 -10 25 -14 69 -15 l63 -1 0 53 c0 47
-2 52 -23 53 -23 1 -39 11 -31 18 2 2 20 6 39 8 33 3 35 1 38 -29 2 -18 8 -33
13 -33 6 0 8 4 5 9 -8 13 4 42 15 35 5 -3 12 2 15 10 3 9 17 16 29 16 36 0 56
27 53 71 -1 21 2 42 6 46 4 4 6 -18 5 -49 -3 -66 13 -97 38 -73 8 8 21 15 29
15 19 0 18 30 -2 58 -13 19 -18 21 -31 11 -13 -11 -14 -4 -13 52 2 84 2 83
-16 65 -23 -23 -33 -20 -31 12 2 26 0 27 -53 30 -30 2 -59 8 -65 14 -9 9 44 8
170 -6z m-714 -37 c26 -18 46 -36 43 -40 -3 -5 13 -9 34 -9 25 0 42 -5 45 -14
3 -8 16 -16 29 -19 16 -3 12 -5 -12 -6 -20 0 -41 4 -47 10 -17 17 -171 41
-233 36 -30 -3 -73 -2 -95 2 -39 7 -38 7 50 30 50 12 97 26 105 31 22 14 28
13 81 -21z m329 -15 c21 -20 0 -17 -46 6 l-39 19 35 -6 c19 -3 42 -12 50 -19z
m1230 16 c0 -5 -7 -10 -16 -10 -8 0 -12 5 -9 10 3 6 10 10 16 10 5 0 9 -4 9
-10z m-937 -37 c-13 -2 -35 -2 -50 0 -16 2 -5 4 22 4 28 0 40 -2 28 -4z m-758
-33 c-3 -5 -17 -10 -31 -10 -13 0 -24 5 -24 10 0 6 14 10 31 10 17 0 28 -4 24
-10z m386 -57 c-9 -16 -10 -14 -11 12 0 21 3 26 11 18 8 -8 8 -16 0 -30z m93
1 c4 -10 1 -14 -6 -12 -15 5 -23 28 -10 28 5 0 13 -7 16 -16z m276 6 c12 -8 9
-10 -13 -10 -16 0 -26 4 -22 10 8 12 16 12 35 0z m-74 -17 c-8 -9 -76 -9 -76
-1 0 7 60 16 73 10 5 -2 6 -6 3 -9z m-152 -8 c3 -8 1 -15 -4 -15 -6 0 -10 7
-10 15 0 8 2 15 4 15 2 0 6 -7 10 -15z m54 8 c-10 -2 -26 -2 -35 0 -10 3 -2 5
17 5 19 0 27 -2 18 -5z m-1745 -35 c8 -29 3 -32 -22 -17 -15 10 -17 16 -9 26
15 19 25 16 31 -9z m2422 11 c10 -15 2 -20 -44 -26 -33 -5 -41 -2 -41 10 0 8
6 18 13 20 22 10 66 7 72 -4z m-4230 -19 c-3 -5 -12 -10 -18 -10 -7 0 -6 4 3
10 19 12 23 12 15 0z m315 -8 c0 -13 -12 -22 -22 -16 -10 6 -1 24 13 24 5 0 9
-4 9 -8z m3183 -12 c-3 -11 -7 -20 -9 -20 -2 0 -4 9 -4 20 0 11 4 20 9 20 5 0
7 -9 4 -20z m157 16 c0 -3 -4 -8 -10 -11 -5 -3 -10 -1 -10 4 0 6 5 11 10 11 6
0 10 -2 10 -4z m-3695 -25 c-3 -5 5 -12 17 -14 17 -3 14 -5 -9 -6 -33 -1 -45
13 -20 22 18 8 19 8 12 -2z m3385 -22 c0 -6 -4 -7 -10 -4 -5 3 -10 11 -10 16
0 6 5 7 10 4 6 -3 10 -11 10 -16z m120 -19 c0 -5 -4 -10 -10 -10 -5 0 -10 5
-10 10 0 6 5 10 10 10 6 0 10 -4 10 -10z m27 -22 c-3 -7 -5 -2 -5 12 0 14 2
19 5 13 2 -7 2 -19 0 -25z m50 0 c-3 -8 -6 -5 -6 6 -1 11 2 17 5 13 3 -3 4
-12 1 -19z m63 -18 c0 -10 -7 -21 -15 -24 -12 -4 -15 0 -11 22 2 15 5 28 5 30
3 11 21 -13 21 -28z m708 23 c-10 -2 -26 -2 -35 0 -10 3 -2 5 17 5 19 0 27 -2
18 -5z m-4323 -13 c-3 -5 -16 -10 -28 -9 -21 0 -21 1 -2 9 28 12 37 12 30 0z
m532 -54 c-14 -9 -14 -11 1 -23 15 -11 15 -12 -4 -13 -31 0 -40 31 -15 52 12
9 22 22 22 30 1 7 4 2 6 -12 3 -15 -1 -28 -10 -34z m-63 -11 c-6 -16 -24 -21
-24 -7 0 11 11 22 21 22 5 0 6 -7 3 -15z m-574 -35 c0 -5 -2 -10 -4 -10 -3 0
-8 5 -11 10 -3 6 -1 10 4 10 6 0 11 -4 11 -10z m451 -8 c-13 -24 -121 -117
-121 -104 0 5 20 28 45 50 25 22 45 45 45 50 0 6 8 13 18 15 9 3 18 5 20 6 1
0 -2 -7 -7 -17z m4056 -6 c78 0 139 -4 137 -8 -3 -5 -14 -8 -25 -8 -11 0 -19
-6 -18 -12 3 -28 -2 -38 -31 -53 -59 -30 -250 -4 -250 34 0 13 26 21 68 22 20
1 -6 7 -58 15 -127 18 -142 24 -45 17 44 -3 144 -6 222 -7z m-3992 -6 c4 -6 3
-25 0 -42 -6 -26 -9 -29 -17 -15 -5 10 -6 22 -3 27 3 6 -1 13 -9 16 -9 3 -16
10 -16 15 0 12 37 11 45 -1z m56 -31 c12 -7 11 -9 -1 -9 -24 0 -43 17 -35 30
6 10 9 10 15 0 4 -7 14 -16 21 -21z m2771 -13 c11 -16 10 -46 -1 -46 -5 0 -29
16 -53 36 l-43 37 45 -8 c25 -4 48 -13 52 -19z m25 -8 c-3 -8 -6 -5 -6 6 -1
11 2 17 5 13 3 -3 4 -12 1 -19z m-2769 -34 c4 -33 -11 -24 -23 15 -5 17 -4 22
6 19 8 -3 15 -18 17 -34z m3429 -26 c-3 -7 -5 -2 -5 12 0 14 2 19 5 13 2 -7 2
-19 0 -25z m-3713 -3 c-7 -16 -24 -21 -24 -6 0 8 7 13 27 20 1 1 0 -6 -3 -14z
m4141 5 c4 -6 -12 -10 -40 -10 -35 0 -46 -3 -42 -13 3 -8 -2 -14 -11 -14 -9 0
-23 6 -30 14 -7 7 -25 14 -40 15 -32 1 55 14 115 16 23 1 45 -2 48 -8z m-4010
-10 c3 -5 1 -10 -4 -10 -6 0 -11 5 -11 10 0 6 2 10 4 10 3 0 8 -4 11 -10z
m3654 -20 c11 -1 -49 -28 -65 -30 -1 0 -4 10 -7 21 -5 19 -3 21 25 15 17 -3
38 -6 47 -6z m-4339 -16 c0 -2 -7 -4 -15 -4 -8 0 -15 4 -15 10 0 5 7 7 15 4 8
-4 15 -8 15 -10z m660 -4 c0 -5 13 -7 30 -3 27 5 30 3 30 -19 0 -14 -3 -28 -7
-32 -4 -3 -12 -21 -18 -40 -11 -31 -10 -33 9 -28 20 5 20 5 4 -12 -22 -22 -23
-27 -1 -19 11 5 14 3 8 -6 -6 -10 -3 -11 12 -2 22 11 67 11 55 0 -4 -4 -34
-18 -67 -31 -56 -22 -62 -27 -88 -81 -15 -32 -37 -95 -47 -140 -20 -87 -60
-288 -60 -301 0 -4 -4 -4 -10 -1 -5 3 -10 13 -10 21 0 8 -10 36 -21 62 -20 42
-21 58 -15 157 3 60 10 126 16 145 5 19 10 57 10 83 0 27 4 46 9 43 5 -4 12 7
16 24 7 34 79 107 101 102 16 -3 20 14 4 20 -6 2 -8 17 -4 36 5 22 12 32 25
32 11 0 19 -4 19 -10z m2710 6 c0 -2 -7 -7 -16 -10 -8 -3 -12 -2 -9 4 6 10 25
14 25 6z m254 -29 c4 -19 3 -26 -4 -22 -5 3 -10 18 -10 32 0 32 5 28 14 -10z
m-3654 13 c8 -5 12 -12 8 -15 -9 -9 -48 4 -48 16 0 12 21 11 40 -1z m3350 -20
c-17 -11 -40 -13 -40 -4 0 15 35 32 45 23 6 -7 5 -13 -5 -19z m1399 14 c2 -2
-38 -3 -90 -3 -60 1 -83 4 -64 8 28 7 145 3 154 -5z m-319 -19 c10 -12 10 -15
-4 -15 -9 0 -16 7 -16 15 0 8 2 15 4 15 2 0 9 -7 16 -15z m211 -23 c-13 -2
-27 0 -32 5 -6 6 3 7 23 4 28 -4 29 -6 9 -9z m-1341 -15 c0 -25 -25 -48 -43
-41 -14 5 -15 9 -6 20 6 8 15 11 20 8 5 -3 6 2 3 10 -4 11 0 16 10 16 9 0 16
-6 16 -13z m1359 -11 c10 -11 8 -16 -8 -21 -25 -8 -41 1 -41 21 0 18 34 18 49
0z m-1479 -30 c0 -8 -9 -14 -19 -13 -15 1 -17 4 -9 14 14 17 28 16 28 -1z
m-2890 -11 c0 -1 -14 -14 -31 -31 l-31 -29 18 31 c10 17 23 31 31 31 7 0 13
-1 13 -2z m2490 -21 c0 -8 -4 -12 -10 -9 -5 3 -10 10 -10 16 0 5 5 9 10 9 6 0
10 -7 10 -16z m476 -28 c-8 -20 -20 -36 -25 -36 -16 0 -14 8 10 47 27 43 35
37 15 -11z m-3326 -6 c0 -5 -4 -10 -10 -10 -5 0 -10 5 -10 10 0 6 5 10 10 10
6 0 10 -4 10 -10z m3189 -67 c1 -7 -10 -13 -24 -13 l-25 0 18 36 c16 35 17 35
23 13 4 -13 7 -30 8 -36z m-254 6 c54 -11 101 -22 105 -24 3 -2 46 -6 95 -10
50 -4 102 -12 116 -19 22 -11 31 -11 53 1 26 14 27 14 24 -9 -3 -22 -6 -23
-68 -20 -66 3 -204 32 -365 76 -111 30 -92 33 40 5z m-2950 -19 c3 -5 1 -10
-4 -10 -6 0 -11 5 -11 10 0 6 2 10 4 10 3 0 8 -4 11 -10z m2458 -7 c-7 -2 -21
-2 -30 0 -10 3 -4 5 12 5 17 0 24 -2 18 -5z m-2583 -47 c0 -2 -8 -10 -17 -17
-16 -13 -17 -12 -4 4 13 16 21 21 21 13z m3005 -6 c3 -5 2 -10 -4 -10 -5 0
-13 5 -16 10 -3 6 -2 10 4 10 5 0 13 -4 16 -10z m-558 -22 c-13 -13 -81 -108
-152 -213 -70 -104 -152 -221 -181 -260 -55 -72 -144 -165 -144 -151 0 17 74
106 88 106 9 0 12 6 8 16 -3 8 -2 12 4 9 5 -3 14 4 20 15 6 11 8 20 4 20 -3 0
2 8 13 18 10 9 13 13 6 8 -26 -17 -12 6 79 132 140 194 247 322 268 322 6 0 0
-10 -13 -22z m806 -1 c49 -13 59 -23 35 -39 -14 -9 27 -3 76 13 38 12 108 12
231 -1 124 -13 278 -62 435 -138 63 -31 135 -63 160 -72 25 -9 64 -28 88 -43
36 -24 42 -32 42 -62 0 -29 5 -38 28 -47 15 -7 28 -13 30 -14 2 -1 4 -22 6
-47 2 -31 -1 -44 -9 -41 -16 7 -38 -22 -32 -41 8 -19 -10 -30 -28 -15 -14 12
-31 -2 -21 -19 3 -5 -8 -14 -24 -21 -17 -7 -30 -17 -30 -22 0 -13 -90 -98
-103 -98 -7 0 -29 -30 -50 -65 -26 -45 -44 -65 -57 -65 -13 0 -20 -7 -20 -18
0 -35 -24 -72 -43 -66 -10 3 -24 0 -32 -6 -8 -7 -15 -10 -15 -6 0 4 -11 -1
-25 -10 -14 -9 -25 -13 -25 -8 0 4 -5 3 -12 -4 -20 -20 5 -37 32 -22 18 10 21
9 18 -7 -2 -10 -7 -22 -13 -26 -5 -5 0 -5 13 -2 13 4 22 2 22 -4 0 -6 -4 -11
-10 -11 -5 0 -10 -9 -10 -20 0 -13 7 -20 18 -20 10 0 23 -5 30 -12 8 -8 12 -9
12 -1 0 6 -4 13 -9 15 -5 2 -11 12 -13 23 -3 17 3 20 37 21 53 0 95 12 95 25
0 6 -6 9 -13 6 -7 -3 -21 1 -30 8 -24 18 -14 56 27 98 l31 32 3 -45 c2 -25 -1
-46 -7 -48 -16 -5 -13 -22 4 -22 8 0 15 7 15 15 0 8 5 15 11 15 14 0 40 26 33
33 -3 3 -12 3 -20 0 -8 -3 -14 0 -14 6 0 5 13 9 30 8 30 -2 38 -11 20 -22 -5
-3 -10 -13 -10 -21 0 -8 5 -12 10 -9 6 3 10 2 10 -4 0 -14 30 -3 56 21 12 10
25 18 30 17 23 -4 34 3 34 21 0 27 30 26 38 -2 5 -21 6 -21 13 -2 4 10 8 28 8
39 l0 20 -9 -20 -9 -20 -1 20 c-2 11 -2 23 -1 28 2 12 -8 8 -34 -15 -14 -12
-25 -27 -25 -34 0 -18 -30 -26 -36 -9 -4 8 -10 12 -15 9 -5 -3 -9 0 -9 5 0 6
10 10 22 8 19 -2 24 4 29 33 5 25 7 28 8 11 1 -23 2 -23 20 -7 11 10 27 33 36
52 9 19 20 34 25 34 6 0 10 9 10 21 0 11 5 17 10 14 6 -3 10 -19 10 -35 0 -16
14 -52 30 -81 77 -130 112 -271 90 -369 -56 -250 -322 -432 -725 -495 -87 -14
-143 -16 -265 -11 -521 20 -1028 227 -1258 511 -127 158 -167 296 -126 436 32
109 35 108 109 -42 98 -197 170 -286 271 -334 51 -24 63 -26 128 -20 39 4 91
13 115 21 46 13 91 49 91 70 0 8 6 11 15 8 9 -4 15 0 15 10 0 9 3 16 7 16 8 0
101 -64 172 -117 28 -22 50 -32 62 -28 14 5 19 1 19 -13 0 -20 25 -36 41 -26
5 3 9 -1 9 -9 0 -14 40 -37 65 -37 7 0 26 -12 42 -26 56 -52 209 -166 240
-180 17 -7 35 -18 38 -24 6 -10 76 -8 170 6 35 6 108 35 155 62 38 22 61 32
74 32 7 0 19 7 26 15 7 9 18 14 24 12 5 -2 22 8 36 22 14 15 39 36 56 49 18
12 31 29 30 38 0 9 8 22 20 30 17 12 25 11 57 -5 l36 -19 27 36 c27 35 40 82
50 182 l5 55 -26 -27 c-21 -23 -29 -26 -50 -18 -20 7 -27 6 -34 -9 -7 -12 -7
-21 0 -28 6 -6 8 -21 4 -33 -6 -20 -20 -20 -20 1 0 5 -4 9 -10 9 -5 1 -12 -19
-15 -43 -5 -36 -14 -52 -48 -84 -23 -21 -42 -44 -42 -50 0 -7 -13 -21 -29 -32
-28 -20 -29 -20 -64 -2 -41 21 -49 18 -41 -15 5 -20 2 -23 -24 -22 -17 1 -39
-8 -52 -20 -13 -12 -27 -19 -32 -16 -4 3 -8 2 -8 -3 0 -12 -56 -35 -77 -31
-13 2 -18 -3 -17 -19 1 -13 -3 -23 -7 -23 -5 0 -9 7 -9 16 0 8 -5 12 -11 9 -6
-4 -8 -13 -5 -21 3 -8 0 -14 -7 -15 -7 0 -20 -2 -30 -4 -24 -4 -71 40 -64 60
4 8 16 14 28 12 32 -3 48 28 26 50 -16 16 -17 16 -17 1 0 -35 -31 -37 -79 -7
-25 15 -47 24 -49 20 -2 -5 -19 6 -39 25 -19 18 -39 31 -44 28 -5 -3 -9 -1 -9
3 0 10 -134 113 -148 113 -5 0 -32 21 -58 46 -30 28 -55 43 -66 41 -11 -3 -23
5 -33 20 -11 16 -23 23 -35 20 -12 -3 -17 0 -14 8 7 18 -48 55 -72 49 -15 -4
-23 2 -32 20 -10 23 -26 31 -57 27 -6 0 -18 18 -28 41 -15 33 -16 43 -5 50 10
8 10 11 1 15 -7 2 -13 12 -13 21 0 14 -2 14 -9 3 -7 -11 -10 -9 -13 8 -1 12
-7 23 -13 24 -14 3 -18 -56 -7 -109 5 -24 8 -44 6 -44 -2 0 -24 23 -50 50 -50
53 -67 54 -77 4 -3 -19 1 -27 16 -33 15 -6 22 -18 24 -42 1 -19 5 -46 9 -62 7
-30 -10 -59 -31 -51 -7 3 -22 -5 -33 -17 -14 -14 -27 -19 -39 -15 -15 5 -15 4
2 -9 53 -41 -93 -33 -181 10 -60 29 -119 108 -178 236 -53 115 -62 155 -48
225 11 55 17 64 90 134 123 117 298 206 535 270 127 34 184 65 262 139 42 40
53 56 43 62 -20 13 7 11 65 -4z m-3196 -3 c-3 -3 -12 -4 -19 -1 -8 3 -5 6 6 6
11 1 17 -2 13 -5z m2728 -4 c-11 -5 -36 -8 -55 -8 l-35 0 30 8 c17 4 41 8 55
8 23 1 23 0 5 -8z m568 -7 c-7 -2 -21 -2 -30 0 -10 3 -4 5 12 5 17 0 24 -2 18
-5z m688 -26 c-18 -18 -12 -24 22 -19 26 4 30 2 20 -9 -7 -7 -13 -17 -13 -21
0 -13 28 -9 32 4 3 9 17 6 49 -9 24 -11 61 -26 82 -34 20 -7 37 -16 37 -20 0
-13 -27 -18 -38 -7 -8 8 -15 8 -25 -1 -8 -6 -21 -10 -28 -8 -8 2 -11 2 -6 0
15 -9 6 -21 -18 -25 -13 -3 -22 -1 -19 3 3 5 1 9 -4 9 -6 0 -8 10 -4 22 5 20
3 21 -36 14 -23 -3 -42 -2 -42 2 0 5 -12 7 -27 4 -23 -4 -25 -2 -19 14 4 10
10 33 13 49 8 48 12 57 24 50 8 -5 8 -10 0 -18z m-4063 -22 c-3 -3 -9 2 -12
12 -6 14 -5 15 5 6 7 -7 10 -15 7 -18z m2550 -24 c-6 -2 -22 9 -37 24 l-26 27
36 -24 c20 -13 32 -25 27 -27z m1615 32 c-7 -2 -19 -2 -25 0 -7 3 -2 5 12 5
14 0 19 -2 13 -5z m-2223 -113 c0 -5 -4 -10 -10 -10 -5 0 -10 5 -10 10 0 6 5
10 10 10 6 0 10 -4 10 -10z m-32 -12 c-2 -8 10 -12 34 -11 65 2 20 -25 -54
-33 -51 -5 -66 -3 -76 9 -9 11 -10 17 -2 22 6 4 14 5 17 1 3 -3 12 1 20 9 17
18 64 20 61 3z m126 -12 c-8 -20 -84 -79 -92 -71 -4 3 1 11 12 17 10 6 32 23
50 39 36 33 37 34 30 15z m305 -45 c-8 -10 -65 -95 -128 -187 -132 -195 -151
-221 -151 -205 0 20 274 411 288 411 2 0 -2 -9 -9 -19z m-829 -61 c11 0 29 -9
40 -20 26 -26 7 -25 -41 2 -22 12 -39 29 -39 37 1 13 2 13 11 -1 5 -10 19 -18
29 -18z m-1785 -130 c-3 -5 -10 -10 -16 -10 -5 0 -9 5 -9 10 0 6 7 10 16 10 8
0 12 -4 9 -10z m-45 -15 c0 -8 -9 -15 -20 -15 -22 0 -27 15 -7 23 21 9 27 7
27 -8z m4739 -211 c-14 -18 -24 -11 -15 11 3 9 11 13 16 10 8 -5 7 -11 -1 -21z
m-92 -96 c-2 -17 -9 -34 -17 -36 -9 -3 -11 0 -5 14 4 11 10 27 12 37 8 28 14
20 10 -15z m-94 -53 c-3 -9 -8 -14 -10 -11 -3 3 -2 9 2 15 9 16 15 13 8 -4z
m-206 -189 c-10 -26 -25 -18 -19 10 3 17 8 22 15 15 5 -5 7 -17 4 -25z m-1263
-77 c-4 -8 0 -9 15 -4 12 4 21 2 21 -4 0 -12 -14 -14 -49 -4 -23 6 -23 7 -5
14 26 10 26 10 18 -2z m401 -18 c3 -5 1 -12 -5 -16 -5 -3 -10 1 -10 9 0 18 6
21 15 7z m-1472 -56 c-3 -9 -8 -14 -10 -11 -3 3 -2 9 2 15 9 16 15 13 8 -4z
m-30 -47 c-5 -7 -19 -30 -32 -51 -13 -21 -26 -36 -28 -33 -5 5 55 96 63 96 3
0 1 -6 -3 -12z m1844 -184 c-3 -3 -12 -4 -19 -1 -8 3 -5 6 6 6 11 1 17 -2 13
-5z m-2012 -101 c-26 -37 -49 -70 -52 -73 -13 -12 32 68 60 107 50 70 43 40
-8 -34z m122 -215 c-3 -7 -5 -2 -5 12 0 14 2 19 5 13 2 -7 2 -19 0 -25z"/>
<path d="M3344 4495 c-8 -20 3 -48 16 -40 13 8 13 55 0 55 -6 0 -13 -7 -16
-15z"/>
<path d="M6927 4313 c-10 -16 11 -39 23 -27 8 8 7 14 -4 23 -8 7 -17 8 -19 4z"/>
<path d="M7090 4159 c0 -5 5 -7 10 -4 6 3 10 8 10 11 0 2 -4 4 -10 4 -5 0 -10
-5 -10 -11z"/>
<path d="M4545 4175 l-30 -14 37 2 c23 1 38 7 38 15 0 15 -6 14 -45 -3z"/>
<path d="M4729 4109 c-10 -6 -7 -9 14 -9 29 0 35 5 14 13 -8 3 -20 1 -28 -4z"/>
<path d="M4885 2200 c-11 -5 -18 -9 -15 -10 27 -8 40 -6 40 6 0 8 -1 14 -2 13
-2 0 -12 -4 -23 -9z"/>
<path d="M5793 2258 c20 -7 35 -7 50 0 18 9 14 11 -28 11 -46 -1 -48 -1 -22
-11z"/>
<path d="M4931 861 c-8 -6 -9 -11 -3 -15 6 -3 14 -1 17 5 9 14 2 20 -14 10z"/>
<path d="M4662 761 c-7 -15 -8 -27 -3 -29 9 -3 -46 -62 -58 -62 -7 0 -26 -43
-41 -92 -6 -21 -5 -26 5 -22 8 3 11 12 9 19 -6 15 13 56 24 53 4 -1 16 1 28 5
17 6 20 13 16 35 -5 24 -3 25 10 14 14 -11 19 -9 32 10 9 12 16 30 16 40 0 9
4 19 9 22 5 4 7 -3 4 -14 -4 -14 0 -20 11 -20 18 0 21 27 6 50 -5 8 -10 12
-10 8 0 -4 -10 -4 -23 1 -19 7 -25 4 -35 -18z"/>
<path d="M3335 750 c19 -30 138 -60 151 -38 4 6 3 8 -3 5 -5 -3 -21 0 -36 8
-15 8 -27 12 -27 10 0 -1 -20 3 -45 11 -25 7 -43 9 -40 4z"/>
<path d="M4950 745 c0 -8 5 -15 10 -15 6 0 10 7 10 15 0 8 -4 15 -10 15 -5 0
-10 -7 -10 -15z"/>
<path d="M4889 699 c-14 -28 1 -43 26 -25 11 8 16 19 12 30 -9 22 -24 20 -38
-5z"/>
<path d="M4700 680 c0 -5 5 -10 11 -10 5 0 7 5 4 10 -3 6 -8 10 -11 10 -2 0
-4 -4 -4 -10z"/>
<path d="M4784 640 c-10 -13 -32 -36 -49 -52 -16 -15 -24 -28 -17 -28 20 0 95
77 90 91 -3 9 -11 6 -24 -11z"/>
<path d="M4891 618 c-1 -22 11 -29 29 -17 13 7 12 9 -2 9 -9 0 -19 6 -21 13
-3 7 -6 6 -6 -5z"/>
<path d="M4870 570 c-8 -5 -12 -11 -9 -14 2 -3 11 -1 19 4 8 5 12 11 9 14 -2
3 -11 1 -19 -4z"/>
<path d="M4790 530 c-8 -5 -25 -10 -37 -10 -13 0 -23 -4 -23 -10 0 -5 9 -10
21 -10 11 0 17 -4 14 -10 -3 -5 -1 -10 4 -10 6 0 11 8 11 17 0 9 3 14 6 10 4
-3 13 0 20 8 24 24 14 34 -16 15z"/>
<path d="M4706 475 c-13 -10 -23 -11 -31 -5 -7 6 -20 8 -29 4 -17 -7 -22 -34
-6 -34 6 0 10 7 10 15 0 21 18 19 32 -4 14 -22 40 -17 31 6 -4 10 -2 14 4 10
5 -3 10 0 10 8 0 8 -1 15 -1 15 -1 0 -10 -7 -20 -15z"/>
<path d="M4897 1685 c3 -8 9 -12 14 -9 12 7 11 11 -5 17 -10 4 -13 1 -9 -8z"/>
<path d="M3565 5110 c-3 -5 -15 -10 -26 -10 -10 0 -20 -3 -20 -7 -5 -25 -4
-61 1 -59 3 2 16 0 29 -5 21 -8 23 -14 18 -49 -4 -30 -2 -40 8 -40 9 0 15 16
17 47 l3 47 47 1 c46 2 47 2 42 -24 -5 -22 -2 -27 15 -27 14 0 20 5 16 14 -3
7 -5 38 -5 68 0 47 -2 54 -20 54 -11 0 -20 -4 -20 -9 0 -13 -32 -23 -39 -13
-9 14 -59 23 -66 12z"/>
<path d="M6550 5095 c0 -25 19 -37 21 -12 0 6 5 1 10 -12 13 -32 23 -20 14 18
-9 40 -45 44 -45 6z"/>
<path d="M6564 5032 c-7 -4 -15 -34 -19 -67 -4 -33 -9 -68 -12 -78 -4 -17 -2
-17 36 3 40 20 41 21 41 73 0 63 -17 88 -46 69z"/>
<path d="M3838 4993 c6 -2 18 -2 25 0 6 3 1 5 -13 5 -14 0 -19 -2 -12 -5z"/>
<path d="M6563 4853 c-10 -16 -21 -30 -24 -33 -13 -9 -22 -102 -12 -109 6 -3
14 -21 18 -38 6 -32 6 -33 -27 -33 -41 0 -58 -15 -58 -49 1 -24 2 -24 14 -9
12 16 14 16 24 -8 7 -14 12 -37 12 -51 0 -33 18 -19 22 17 2 16 -2 24 -9 23
-17 -4 -16 3 4 38 20 33 34 38 26 10 -4 -16 2 -20 38 -26 23 -4 51 -16 63 -26
14 -13 33 -19 64 -17 37 1 46 5 55 27 6 14 14 28 18 31 3 3 8 16 12 29 5 22 3
23 -26 17 -23 -4 -28 -3 -17 4 12 8 11 10 -6 10 -35 0 -74 38 -72 68 2 25 6
27 47 30 53 3 56 6 64 50 5 26 3 32 -12 32 -10 0 -26 9 -36 20 -15 17 -31 20
-91 20 -69 0 -75 -2 -91 -27z"/>
<path d="M1607 4673 c6 -16 8 -16 23 1 9 12 8 15 -8 13 -12 0 -18 -6 -15 -14z"/>
<path d="M1255 4639 c-4 -6 -13 -8 -21 -5 -8 3 -11 0 -8 -9 8 -20 34 -27 34
-10 0 8 5 15 10 15 6 0 10 5 10 10 0 13 -17 13 -25 -1z"/>
<path d="M1195 4631 c3 -5 0 -13 -6 -17 -6 -3 -15 0 -20 7 -6 10 -9 2 -9 -23
0 -39 -16 -51 -27 -20 -4 9 -14 24 -22 32 -13 13 -14 12 -7 -10 4 -14 10 -38
12 -55 2 -16 1 -22 -2 -12 -3 9 -9 17 -14 17 -5 0 -20 11 -33 24 l-25 25 -5
-27 c-3 -15 -3 -40 -1 -57 l5 -30 -18 28 c-22 34 -32 35 -25 1 3 -19 1 -25 -7
-20 -6 4 -9 11 -6 16 3 5 0 12 -6 16 -7 4 -9 3 -5 -4 3 -5 2 -12 -3 -14 -4 -1
-12 -13 -15 -26 -8 -23 10 -28 27 -7 5 6 5 0 2 -12 -9 -31 3 -66 21 -59 7 3
16 1 19 -4 4 -6 -1 -10 -10 -10 -14 0 -14 -3 -1 -27 12 -24 12 -30 0 -41 -8
-7 -14 -18 -14 -24 0 -7 7 -3 16 8 8 10 13 13 9 7 -3 -7 -1 -13 5 -13 6 0 9
-4 6 -9 -3 -5 0 -13 7 -19 9 -8 11 -1 9 33 -2 23 2 53 8 66 12 21 14 21 25 6
12 -16 13 -16 18 3 3 11 1 18 -4 14 -10 -6 -11 2 -3 33 4 13 10 20 15 17 5 -3
9 1 9 9 0 8 9 24 20 37 11 13 20 29 20 37 0 8 4 12 9 8 5 -3 19 9 32 26 16 22
18 33 10 38 -6 4 -9 15 -5 24 3 10 1 17 -6 17 -6 0 -9 -4 -5 -9z m-178 -173
c-2 -12 -10 -24 -17 -26 -9 -3 -11 1 -7 12 4 10 7 22 7 27 0 5 4 9 10 9 5 0 8
-10 7 -22z"/>
<path d="M1136 4622 c-2 -4 -1 -14 5 -22 7 -12 9 -10 9 8 0 23 -5 28 -14 14z"/>
<path d="M1887 4560 c-3 -11 -1 -20 4 -20 5 0 9 9 9 20 0 11 -2 20 -4 20 -2 0
-6 -9 -9 -20z"/>
<path d="M6752 4474 c0 -30 6 -48 24 -69 13 -15 25 -26 27 -24 2 2 13 17 25
33 31 40 29 74 -5 82 -14 4 -34 2 -44 -4 -14 -9 -18 -8 -22 6 -2 9 -4 -1 -5
-24z"/>
<path d="M928 4433 c6 -34 21 -38 32 -8 6 14 10 27 10 29 0 1 -10 2 -23 2 -19
0 -23 -4 -19 -23z"/>
<path d="M1548 4324 c-38 -20 -36 -28 2 -9 17 9 30 18 30 20 0 7 -1 6 -32 -11z"/>
<path d="M1428 4252 c-15 -9 -30 -22 -32 -29 -3 -7 9 -3 27 9 17 13 34 24 36
25 2 2 2 5 0 7 -2 3 -16 -3 -31 -12z"/>
<path d="M1565 4230 c4 -6 11 -8 16 -5 14 9 11 15 -7 15 -8 0 -12 -5 -9 -10z"/>
<path d="M1520 4220 c-8 -5 -10 -10 -5 -10 6 0 17 5 25 10 8 5 11 10 5 10 -5
0 -17 -5 -25 -10z"/>
<path d="M1662 4220 c15 -4 44 -18 63 -30 26 -16 33 -18 29 -7 -7 20 -65 47
-96 46 -21 -1 -21 -1 4 -9z"/>
<path d="M1475 4200 c-3 -6 1 -7 9 -4 18 7 21 14 7 14 -6 0 -13 -4 -16 -10z"/>
<path d="M1590 4199 c0 -5 -11 -9 -24 -9 -39 0 -40 -17 -1 -22 19 -2 35 0 35
5 0 13 81 -2 110 -21 23 -15 24 -14 11 2 -8 9 -22 21 -31 26 -28 15 -100 29
-100 19z"/>
<path d="M1570 4060 c-8 -6 -25 -10 -38 -10 -48 0 -162 -78 -162 -110 0 -6 -5
-20 -10 -31 -8 -15 -15 -17 -29 -10 -22 13 -61 -12 -61 -38 0 -10 -7 -24 -15
-31 -18 -15 -20 -40 -3 -40 6 0 8 -3 4 -7 -4 -5 -13 -8 -18 -8 -6 0 -13 -6
-15 -12 -4 -12 31 -19 61 -14 11 2 86 -49 86 -59 0 -4 10 -10 21 -13 14 -4 20
-11 16 -21 -5 -13 8 -15 91 -15 91 0 101 2 160 34 34 19 65 34 69 33 4 -1 16
10 26 23 14 20 19 49 22 145 5 130 1 156 -19 148 -8 -3 -20 3 -27 14 -18 24
-95 38 -116 20 -11 -9 -16 -9 -22 0 -4 7 -12 8 -21 2z m30 -79 c0 -28 -27 -51
-60 -51 -16 0 -32 -4 -35 -10 -3 -5 -15 -10 -25 -10 -10 0 -26 -7 -34 -16 -13
-13 -16 -13 -16 -1 0 8 7 20 15 27 8 7 15 18 15 26 0 13 34 29 47 21 5 -3 24
3 43 13 46 23 50 24 50 1z m-59 -106 c5 4 17 1 26 -4 15 -8 11 -10 -19 -11
-36 0 -47 8 -31 24 4 4 9 2 11 -3 2 -6 8 -9 13 -6z m-51 -15 c-13 -9 -13 -10
0 -10 11 -1 8 -6 -9 -20 -13 -11 -31 -20 -40 -20 -14 1 -14 2 0 13 8 7 18 20
22 30 3 9 14 17 24 17 15 0 16 -2 3 -10z m30 -60 c0 -5 -5 -10 -11 -10 -5 0
-7 5 -4 10 3 6 8 10 11 10 2 0 4 -4 4 -10z m-40 -25 c0 -8 -2 -15 -4 -15 -2 0
-6 7 -10 15 -3 8 -1 15 4 15 6 0 10 -7 10 -15z m-70 -19 c0 -3 -4 -8 -10 -11
-5 -3 -10 -1 -10 4 0 6 5 11 10 11 6 0 10 -2 10 -4z"/>
<path d="M799 3958 c-18 -29 -20 -45 -16 -128 4 -90 24 -173 51 -211 8 -12 11
17 12 125 1 149 9 220 25 211 14 -9 11 2 -7 19 -24 24 -42 19 -65 -16z"/>
<path d="M902 3762 c-27 -29 -32 -43 -32 -81 0 -25 6 -54 14 -63 15 -20 64
-41 77 -32 13 8 11 58 -3 73 -10 11 -10 14 0 18 15 6 16 39 2 48 -7 4 -8 11
-1 18 6 8 4 19 -7 33 -17 20 -17 20 -50 -14z"/>
<path d="M1133 3726 c-26 -8 -33 -15 -32 -36 1 -31 17 -81 18 -59 1 12 9 15
34 13 17 -2 27 0 22 4 -14 9 -17 53 -4 68 14 18 -1 21 -38 10z"/>
<path d="M7671 3444 c0 -11 3 -14 6 -6 3 7 2 16 -1 19 -3 4 -6 -2 -5 -13z"/>
<path d="M1421 3214 c0 -11 3 -14 6 -6 3 7 2 16 -1 19 -3 4 -6 -2 -5 -13z"/>
<path d="M1402 3130 c0 -14 2 -19 5 -12 2 6 2 18 0 25 -3 6 -5 1 -5 -13z"/>
<path d="M1427 3088 c3 -18 9 -37 13 -42 10 -10 30 1 29 17 0 9 -2 9 -6 0 -7
-19 -22 -16 -22 5 -1 37 -5 52 -12 52 -5 0 -6 -15 -2 -32z"/>
<path d="M1425 3009 c-4 -6 -5 -12 -2 -15 2 -3 7 2 10 11 7 17 1 20 -8 4z"/>
<path d="M1512 2985 c0 -16 2 -22 5 -12 2 9 2 23 0 30 -3 6 -5 -1 -5 -18z"/>
<path d="M1396 2965 c4 -8 8 -15 10 -15 2 0 4 7 4 15 0 8 -4 15 -10 15 -5 0
-7 -7 -4 -15z"/>
<path d="M1465 2959 c-4 -6 -5 -12 -2 -15 2 -3 7 2 10 11 7 17 1 20 -8 4z"/>
<path d="M1830 2889 c0 -5 5 -7 10 -4 6 3 10 8 10 11 0 2 -4 4 -10 4 -5 0 -10
-5 -10 -11z"/>
<path d="M1821 2844 c0 -11 3 -14 6 -6 3 7 2 16 -1 19 -3 4 -6 -2 -5 -13z"/>
<path d="M2542 2848 c-7 -7 -12 -18 -12 -24 0 -21 19 -26 35 -10 18 18 19 27
3 24 -7 -2 -12 3 -10 10 3 15 -1 15 -16 0z"/>
<path d="M1653 2773 c-20 -8 -15 -23 7 -23 11 0 20 7 20 15 0 15 -6 17 -27 8z"/>
<path d="M7620 2746 c0 -18 3 -36 7 -39 9 -9 34 13 27 24 -3 5 0 9 5 9 20 0
11 17 -14 28 -24 11 -25 10 -25 -22z"/>
<path d="M2960 2720 c-13 -8 -13 -10 2 -10 9 0 20 5 23 10 8 13 -5 13 -25 0z"/>
<path d="M7600 2670 c-8 -5 -12 -12 -9 -15 4 -3 12 1 19 10 14 17 11 19 -10 5z"/>
<path d="M1570 2649 c0 -11 5 -17 10 -14 6 3 10 13 10 21 0 8 -4 14 -10 14 -5
0 -10 -9 -10 -21z"/>
<path d="M1390 2656 c0 -2 9 -6 20 -9 11 -3 20 -1 20 4 0 5 -9 9 -20 9 -11 0
-20 -2 -20 -4z"/>
<path d="M7625 2650 c-3 -5 -1 -10 4 -10 6 0 11 5 11 10 0 6 -2 10 -4 10 -3 0
-8 -4 -11 -10z"/>
<path d="M7130 2640 c0 -5 5 -10 11 -10 5 0 7 5 4 10 -3 6 -8 10 -11 10 -2 0
-4 -4 -4 -10z"/>
<path d="M1318 2623 c7 -3 16 -2 19 1 4 3 -2 6 -13 5 -11 0 -14 -3 -6 -6z"/>
<path d="M1927 2614 c-7 -8 3 -34 13 -34 9 0 8 26 -1 35 -3 3 -8 2 -12 -1z"/>
<path d="M2166 2603 c-3 -7 1 -10 10 -6 10 3 14 -2 15 -18 0 -23 1 -23 9 -4 5
11 9 25 9 32 1 15 -37 12 -43 -4z"/>
<path d="M7587 2614 c-4 -4 -7 -14 -7 -23 0 -11 3 -12 11 -4 6 6 10 16 7 23
-2 6 -7 8 -11 4z"/>
<path d="M2010 2559 c0 -5 5 -7 10 -4 6 3 10 8 10 11 0 2 -4 4 -10 4 -5 0 -10
-5 -10 -11z"/>
<path d="M6293 2563 c9 -2 25 -2 35 0 9 3 1 5 -18 5 -19 0 -27 -2 -17 -5z"/>
<path d="M7603 2563 c4 -3 4 -9 1 -14 -3 -6 -11 -5 -20 2 -11 9 -14 8 -14 -3
0 -8 -11 -25 -25 -38 -14 -13 -22 -27 -18 -31 7 -7 137 -59 148 -59 3 0 5 29
5 64 0 61 -1 64 -27 69 -16 3 -35 7 -43 10 -8 2 -12 2 -7 0z"/>
<path d="M2610 2542 c0 -12 19 -26 26 -19 2 2 -2 10 -11 17 -9 8 -15 8 -15 2z"/>
<path d="M1230 2520 c0 -5 5 -10 10 -10 6 0 10 5 10 10 0 6 -4 10 -10 10 -5 0
-10 -4 -10 -10z"/>
<path d="M2585 2500 c3 -5 8 -10 11 -10 2 0 4 5 4 10 0 6 -5 10 -11 10 -5 0
-7 -4 -4 -10z"/>
<path d="M7015 2500 c3 -5 8 -10 11 -10 2 0 4 5 4 10 0 6 -5 10 -11 10 -5 0
-7 -4 -4 -10z"/>
<path d="M6550 2400 c0 -5 5 -10 11 -10 5 0 7 5 4 10 -3 6 -8 10 -11 10 -2 0
-4 -4 -4 -10z"/>
<path d="M1318 2385 c13 -9 26 -14 29 -11 8 8 3 12 -27 21 l-25 7 23 -17z"/>
<path d="M1360 2391 c0 -6 5 -13 10 -16 6 -3 10 1 10 9 0 9 -4 16 -10 16 -5 0
-10 -4 -10 -9z"/>
<path d="M7230 2391 c0 -15 28 -33 47 -29 14 3 11 8 -14 21 -18 10 -33 13 -33
8z"/>
<path d="M7305 2370 c-3 -5 -1 -10 4 -10 6 0 11 5 11 10 0 6 -2 10 -4 10 -3 0
-8 -4 -11 -10z"/>
<path d="M7430 2349 c0 -6 -7 -9 -15 -5 -8 3 -15 1 -15 -4 0 -6 -6 -10 -14
-10 -7 0 -19 -7 -26 -15 -7 -8 -25 -15 -41 -15 -16 0 -29 -4 -29 -10 0 -5 -3
-9 -7 -8 -5 1 -28 -8 -51 -21 l-44 -22 7 23 7 23 -23 -24 c-21 -22 -23 -22
-29 -6 -6 16 -8 16 -22 2 -26 -26 -81 -31 -124 -11 -20 10 -32 20 -25 22 7 2
1 12 -14 24 -14 11 -23 24 -20 29 4 5 -3 9 -14 9 -11 0 -23 -4 -26 -10 -3 -5
0 -10 7 -10 10 0 9 -3 -1 -9 -12 -8 -9 -11 12 -16 15 -4 27 -11 27 -15 0 -17
-23 -23 -84 -22 l-61 0 65 -13 c35 -7 66 -18 68 -24 3 -8 9 -8 23 0 11 5 38 7
62 4 85 -11 377 -16 377 -7 0 5 13 15 30 22 16 7 32 21 35 31 4 10 10 19 15
19 5 0 8 9 7 20 -1 11 -7 20 -14 20 -7 0 -13 6 -13 14 0 8 -7 16 -15 20 -8 3
-15 1 -15 -5z"/>
<path d="M6609 2321 c12 -17 29 -32 37 -32 22 -2 28 -4 49 -15 11 -6 39 -14
63 -18 34 -5 42 -3 42 9 0 11 -6 14 -25 9 -16 -4 -34 1 -54 15 -16 12 -34 21
-40 21 -6 0 -11 4 -11 9 0 5 -10 13 -22 16 -66 19 -63 20 -39 -14z"/>
<path d="M1110 2310 c0 -5 7 -7 15 -4 8 4 15 8 15 10 0 2 -7 4 -15 4 -8 0 -15
-4 -15 -10z"/>
<path d="M7150 2295 c0 -8 2 -15 4 -15 2 0 6 7 10 15 3 8 1 15 -4 15 -6 0 -10
-7 -10 -15z"/>
<path d="M1118 2278 c9 -9 15 -9 24 0 9 9 7 12 -12 12 -19 0 -21 -3 -12 -12z"/>
<path d="M1033 2241 c0 -11 5 -18 9 -15 4 3 5 11 1 19 -7 21 -12 19 -10 -4z"/>
<path d="M1118 2213 c7 -3 16 -2 19 1 4 3 -2 6 -13 5 -11 0 -14 -3 -6 -6z"/>
<path d="M2530 2160 c0 -6 7 -10 15 -10 8 0 15 2 15 4 0 2 -7 6 -15 10 -8 3
-15 1 -15 -4z"/>
<path d="M715 2060 c-3 -6 1 -7 9 -4 18 7 21 14 7 14 -6 0 -13 -4 -16 -10z"/>
<path d="M948 1983 c7 -3 16 -2 19 1 4 3 -2 6 -13 5 -11 0 -14 -3 -6 -6z"/>
<path d="M650 1969 c0 -5 5 -7 10 -4 6 3 10 8 10 11 0 2 -4 4 -10 4 -5 0 -10
-5 -10 -11z"/>
<path d="M2595 1935 c-11 -21 -24 -34 -32 -31 -7 3 -13 -1 -13 -9 0 -28 30
-15 55 25 27 42 29 50 17 50 -4 0 -16 -16 -27 -35z"/>
<path d="M723 1893 c9 -2 23 -2 30 0 6 3 -1 5 -18 5 -16 0 -22 -2 -12 -5z"/>
<path d="M658 1863 c7 -3 16 -2 19 1 4 3 -2 6 -13 5 -11 0 -14 -3 -6 -6z"/>
<path d="M2556 1845 c-9 -24 -8 -50 4 -80 7 -20 13 -23 22 -15 7 6 21 16 32
24 16 11 17 15 5 34 -8 12 -19 22 -26 22 -7 0 -16 7 -21 16 -8 15 -10 15 -16
-1z m32 -43 c6 -18 -15 -14 -22 4 -4 10 -1 14 6 12 6 -2 14 -10 16 -16z"/>
<path d="M626 1842 c-2 -4 4 -9 16 -9 11 -1 30 -12 42 -25 12 -13 29 -24 36
-26 8 -2 -2 13 -22 32 -36 35 -61 45 -72 28z"/>
<path d="M770 1820 l-25 -8 25 -1 c14 0 32 4 40 9 13 9 13 10 0 9 -8 -1 -26
-5 -40 -9z"/>
<path d="M410 1751 c0 -5 9 -11 19 -14 14 -3 18 -1 14 9 -6 15 -33 19 -33 5z"/>
<path d="M2675 1750 c-3 -5 -2 -10 4 -10 5 0 13 5 16 10 3 6 2 10 -4 10 -5 0
-13 -4 -16 -10z"/>
<path d="M2636 1733 c-8 -8 -12 -9 -39 -12 -14 -1 -19 -25 -11 -50 3 -10 14
-5 39 19 34 33 43 50 27 50 -5 0 -12 -3 -16 -7z"/>
<path d="M355 1650 c3 -6 1 -10 -6 -10 -7 0 -10 -3 -6 -6 3 -3 13 -2 22 4 16
8 16 9 1 15 -10 4 -15 3 -11 -3z"/>
<path d="M445 1580 c3 -5 14 -10 23 -10 15 0 15 2 2 10 -20 13 -33 13 -25 0z"/>
<path d="M140 1486 c0 -2 8 -10 18 -17 15 -13 16 -12 3 4 -13 16 -21 21 -21
13z"/>
<path d="M7411 1436 c-1 -11 -8 -27 -17 -37 -15 -17 -15 -18 14 -7 19 8 28 16
23 23 -5 5 -11 17 -14 25 -4 11 -6 10 -6 -4z"/>
<path d="M7463 1424 c-7 -7 -13 -20 -13 -29 0 -8 -5 -15 -12 -15 -8 0 -9 -3
-2 -10 11 -11 74 -2 74 11 0 4 -6 12 -14 16 -8 4 -15 15 -17 25 -3 13 -6 14
-16 2z"/>
<path d="M408 1423 c6 -2 18 -2 25 0 6 3 1 5 -13 5 -14 0 -19 -2 -12 -5z"/>
<path d="M6350 1422 c0 -5 7 -13 16 -16 10 -4 14 -1 12 6 -5 15 -28 23 -28 10z"/>
<path d="M7637 1403 c-10 -10 -8 -83 2 -83 5 0 12 6 14 13 3 6 6 3 7 -8 2 -17
3 -16 9 5 4 15 1 36 -7 53 -15 29 -16 30 -25 20z"/>
<path d="M6530 1378 c0 -10 5 -18 10 -18 6 0 10 -6 10 -14 0 -7 7 -19 15 -26
8 -7 15 -25 15 -39 0 -15 6 -35 13 -45 20 -27 10 -66 -17 -66 -19 -1 -18 -2 7
-16 39 -21 33 -27 -9 -9 -20 8 -49 15 -65 15 -16 0 -29 5 -29 10 0 6 -13 10
-29 10 -25 0 -28 3 -23 25 2 14 0 25 -6 25 -10 0 -27 46 -23 67 1 6 -3 14 -7
17 -5 3 -15 -15 -22 -39 -12 -43 -14 -45 -31 -29 -19 17 -39 12 -39 -12 0 -32
-46 1 -52 36 -2 21 -8 25 -33 22 -16 -2 -32 -8 -33 -13 -3 -6 -10 -5 -18 2 -8
7 -17 9 -20 7 -9 -10 49 -45 163 -97 62 -28 116 -51 120 -51 5 0 19 -6 33 -13
14 -7 46 -18 73 -25 130 -33 167 -38 322 -47 50 -3 103 -8 118 -11 15 -3 34 0
42 6 12 10 22 10 45 0 78 -32 501 44 598 108 25 16 33 76 8 66 -8 -3 -16 -14
-19 -25 -3 -10 -13 -19 -23 -19 -9 0 -25 -6 -33 -14 -9 -7 -33 -16 -54 -19
-33 -5 -39 -3 -47 16 -7 18 -9 19 -9 4 -1 -15 -6 -17 -31 -12 -37 8 -41 -12
-4 -21 14 -4 22 -10 17 -15 -11 -10 -93 12 -93 26 0 5 -6 -1 -13 -14 -6 -13
-16 -23 -21 -22 -5 2 -13 -3 -17 -11 -8 -11 -10 -11 -18 0 -6 11 -11 11 -24
-2 -22 -22 -47 -20 -47 4 0 11 -3 20 -8 20 -4 0 -15 -9 -25 -20 -19 -23 -43
-26 -50 -7 -4 8 -8 9 -14 2 -8 -10 -41 -11 -93 -2 -14 2 -25 6 -25 7 0 1 -20
3 -45 4 -53 3 -130 23 -130 35 0 5 -9 11 -20 14 -12 3 -20 14 -20 26 0 12 -5
21 -11 21 -7 0 -10 -15 -7 -40 3 -32 0 -40 -12 -37 -8 1 -14 11 -12 21 2 11
-1 15 -7 11 -6 -3 -11 -16 -11 -28 0 -29 -44 -51 -61 -31 -8 10 -8 14 0 14 6
0 11 7 11 15 0 8 -9 15 -20 15 -33 0 -45 40 -26 85 18 42 20 59 7 51 -8 -6 1
56 13 85 9 20 -31 34 -51 17 -8 -7 -13 -7 -13 0 0 5 -16 12 -35 14 -29 3 -35
1 -35 -14z"/>
<path d="M7437 1344 c-3 -5 3 -15 13 -22 12 -7 21 -8 25 -2 3 6 0 10 -9 10 -8
0 -16 5 -18 12 -3 7 -7 8 -11 2z"/>
<path d="M6181 1314 c0 -11 3 -14 6 -6 3 7 2 16 -1 19 -3 4 -6 -2 -5 -13z"/>
<path d="M6846 1275 c4 -8 11 -15 16 -15 6 0 5 6 -2 15 -7 8 -14 15 -16 15 -2
0 -1 -7 2 -15z"/>
<path d="M7152 1254 c3 -12 1 -29 -4 -38 -11 -20 2 -21 28 -2 19 15 19 15 -5
38 -23 22 -23 22 -19 2z"/>
<path d="M6806 1231 c-4 -7 -5 -15 -2 -18 9 -9 19 4 14 18 -4 11 -6 11 -12 0z"/>
<path d="M7337 1174 c-4 -4 -4 -10 -1 -15 6 -10 34 0 34 12 0 10 -24 12 -33 3z"/>
<path d="M6977 1150 c10 -11 22 -20 27 -20 5 0 1 9 -9 20 -10 11 -22 20 -26
20 -5 0 -1 -9 8 -20z"/>
<path d="M2485 479 c-4 -6 -5 -12 -2 -15 2 -3 7 2 10 11 7 17 1 20 -8 4z"/>
<path d="M2202 36 c-17 -37 -15 -45 4 -18 8 12 14 27 12 33 -2 6 -9 -1 -16
-15z"/>
<path d="M2463 24 c-15 -16 -16 -24 -4 -24 8 0 24 30 19 35 -2 2 -9 -3 -15
-11z"/>
</g>
</svg>
